<?xml version="1.0" encoding="utf-8"?>
<!-- Generator: Adobe Illustrator 16.0.4, SVG Export Plug-In . SVG Version: 6.00 Build 0)  -->
<!DOCTYPE svg PUBLIC "-//W3C//DTD SVG 1.1//EN" "http://www.w3.org/Graphics/SVG/1.1/DTD/svg11.dtd">
<svg version="1.1" id="Layer_1" xmlns="http://www.w3.org/2000/svg" xmlns:xlink="http://www.w3.org/1999/xlink" x="0px" y="0px"
	 width="25px" height="25px" viewBox="0 0 25 25" enable-background="new 0 0 25 25" xml:space="preserve">
<path fill="#FFFFFF" d="M24.996,20c0,2.758-2.237,4.996-4.999,4.996H5.002c-2.76,0-4.999-2.238-4.999-4.996V5.003
	c0-2.762,2.239-5,4.999-5h14.995c2.762,0,4.999,2.238,4.999,5V20L24.996,20z"/>
<path fill="#007784" d="M11.102,12.981c0,0,1.607-0.12,1.607-2.002c0-1.885-1.313-2.804-2.979-2.804H4.25v10.53h5.48
	c0,0,3.344,0.105,3.344-3.107C13.074,15.598,13.221,12.981,11.102,12.981z M6.667,10.045H9.73c0,0,0.746,0,0.746,1.094
	c0,1.097-0.439,1.255-0.936,1.255H6.667V10.045z M9.639,16.833c-0.11,0.005-0.2,0-0.26,0H6.667V14.02H9.73
	c0,0,1.11-0.015,1.11,1.443C10.84,16.639,10.085,16.811,9.639,16.833z"/>
<path fill="#FFFFFF" d="M9.319,16.171c-0.122,0.006-0.221,0-0.287,0H9.319z"/>
<path fill="#007784" d="M17.536,10.854c-4.05,0-4.046,4.044-4.046,4.044s-0.277,4.024,4.046,4.024c0,0,3.603,0.206,3.603-2.801
	h-1.853c0,0,0.062,1.133-1.688,1.133c0,0-1.854,0.124-1.854-1.833H21.2C21.2,15.423,21.797,10.854,17.536,10.854z M15.723,14.02
	c0,0,0.229-1.623,1.854-1.623c1.627,0,1.606,1.623,1.606,1.623H15.723z"/>
<rect x="15.271" y="8.794" fill="#007784" width="4.343" height="1.297"/>
</svg>
