<?xml version="1.0" encoding="utf-8"?>
<!-- Generator: Adobe Illustrator 16.0.4, SVG Export Plug-In . SVG Version: 6.00 Build 0)  -->
<!DOCTYPE svg PUBLIC "-//W3C//DTD SVG 1.1//EN" "http://www.w3.org/Graphics/SVG/1.1/DTD/svg11.dtd">
<svg version="1.1" id="Layer_1" xmlns="http://www.w3.org/2000/svg" xmlns:xlink="http://www.w3.org/1999/xlink" x="0px" y="0px"
	 width="25px" height="25px" viewBox="0 0 25 25" enable-background="new 0 0 25 25" xml:space="preserve">
<path fill="#FFFFFF" d="M24.996,20c0,2.758-2.237,4.996-4.999,4.996H5.002c-2.76,0-4.999-2.238-4.999-4.996V5.003
	c0-2.762,2.239-5,4.999-5h14.995c2.762,0,4.999,2.238,4.999,5V20L24.996,20z"/>
<g>
	<g>
		<path fill="#007784" d="M8.919,7.074c0,0.846-0.625,1.531-1.652,1.531c-0.968,0-1.592-0.686-1.592-1.531
			c0-0.866,0.645-1.531,1.632-1.531C8.294,5.543,8.898,6.208,8.919,7.074 M5.755,9.814h3.063v9.853H5.755V9.814z"/>
		<path fill="#007784" d="M10.65,12.958c0-1.229-0.04-2.257-0.08-3.144h2.659l0.146,1.37h0.062c0.4-0.646,1.393-1.592,3.043-1.592
			c2.017,0,3.523,1.35,3.523,4.251v5.823h-3.062v-5.46c0-1.27-0.44-2.136-1.553-2.136c-0.846,0-1.35,0.584-1.57,1.148
			c-0.08,0.201-0.102,0.483-0.102,0.767v5.685H10.65V12.958z"/>
	</g>
</g>
</svg>
