<?xml version="1.0" encoding="utf-8"?>
<!-- Generator: Adobe Illustrator 16.0.4, SVG Export Plug-In . SVG Version: 6.00 Build 0)  -->
<!DOCTYPE svg PUBLIC "-//W3C//DTD SVG 1.1//EN" "http://www.w3.org/Graphics/SVG/1.1/DTD/svg11.dtd">
<svg version="1.1" id="Layer_1" xmlns="http://www.w3.org/2000/svg" xmlns:xlink="http://www.w3.org/1999/xlink" x="0px" y="0px"
	 width="25px" height="25px" viewBox="0 0 25 25" enable-background="new 0 0 25 25" xml:space="preserve">
<path fill="#FFFFFF" d="M24.996,20c0,2.758-2.237,4.996-4.999,4.996H5.002c-2.76,0-4.999-2.238-4.999-4.996V5.003
	c0-2.762,2.239-5,4.999-5h14.995c2.762,0,4.999,2.238,4.999,5V20L24.996,20z"/>
<g>
	<g>
		<path fill="#007784" d="M21.682,7.809c-0.211,1.108-1.604,4.98-4.13,8.4c-1.104,1.443-2.394,2.863-4.046,3.846
			c-0.612,0.361-1.818,0.816-2.622,0.478c-0.475-0.199-0.856-0.589-1.17-1.078c-0.086-0.136-0.167-0.274-0.244-0.425
			c-0.05-0.1-0.099-0.2-0.147-0.305v-0.004c-0.62-1.129-0.958-2.674-1.25-3.846c-0.268-1.072-0.521-2.089-0.851-3.027
			c-0.192-0.546-0.308-1.102-0.531-1.628v-0.001C6.636,10.128,6.58,10.052,6.52,9.989C6.492,9.958,6.461,9.93,6.43,9.907
			C6.415,9.892,6.4,9.881,6.384,9.87c-0.061-0.043-0.125-0.072-0.19-0.096c-0.568-0.183-1.263,0.379-1.981,0.272
			C3.811,9.989,3.736,9.56,3.463,9.299V9.196l0.022-0.018C3.415,9.064,3.34,8.947,3.241,8.852v-0.1
			C4.619,7.651,5.833,6.32,7.427,5.383c0.5-0.295,1.352-0.612,2.042-0.409c0.545,0.159,1.002,0.801,1.271,1.43
			c0.002,0,0.004,0.004,0.004,0.005c0.146,0.255,0.265,0.526,0.345,0.78c0.266,0.834,0.409,1.844,0.543,2.655
			c0.106,0.633,0.151,1.406,0.259,2.168c0.012,0.088,0.024,0.172,0.039,0.256c0.013,0.082,0.028,0.168,0.042,0.254
			c0.022,0.121,0.048,0.248,0.079,0.369c0.028,0.123,0.061,0.242,0.095,0.357c0.025,0.08,0.051,0.158,0.076,0.234
			c0.028,0.076,0.057,0.149,0.087,0.225c0.095,0.156,0.2,0.307,0.325,0.438c1.178,1.263,2.077-0.487,2.555-1.377
			c0.416-0.771,0.785-1.578,0.853-2.314c0.036-0.416,0.017-0.75-0.058-1.01c-0.36-0.432-1.045-0.49-2.002-0.416
			c0.055-0.162,0.11-0.318,0.176-0.469c-0.127,0.003-0.26,0.011-0.396,0.022c0.901-2.797,3.549-3.967,4.333-4.085
			c0.964-0.148,2.366-0.118,3.025,0.719c0.132,0.167,0.229,0.349,0.294,0.541C21.812,6.339,21.811,7.083,21.682,7.809z"/>
	</g>
</g>
</svg>
