<?xml version="1.0" encoding="utf-8"?>
<!-- Generator: Adobe Illustrator 17.0.2, SVG Export Plug-In . SVG Version: 6.00 Build 0)  -->
<!DOCTYPE svg PUBLIC "-//W3C//DTD SVG 1.1//EN" "http://www.w3.org/Graphics/SVG/1.1/DTD/svg11.dtd">
<svg version="1.1" id="Layer_1" xmlns="http://www.w3.org/2000/svg" xmlns:xlink="http://www.w3.org/1999/xlink" x="0px" y="0px"
	 width="612px" height="612px" viewBox="0 0 612 612" enable-background="new 0 0 612 612" xml:space="preserve">
<g>
	<path fill="#808285" stroke="#808285" stroke-width="2.2463" stroke-miterlimit="10" d="M-1034.77,413.83
		c-0.11-5.27,0-10.57,0.32-15.89s0.7-10.67,1.13-16.05c1.07,0.22,1.94,0.32,2.58,0.32c0.86,2.15,2.82,6.67,5.89,13.55
		c3.06,6.88,5.56,10.65,7.5,11.29c2.36-4.19,4.68-8.49,6.94-12.9s4.09-9.03,5.48-13.87c1.5,0,2.58,0.16,3.23,0.48
		c0.32,1.08,0.67,6.13,1.05,15.16s0.67,14.41,0.89,16.13c-0.22,0.43-0.38,0.81-0.48,1.13c-0.43,0-0.89,0-1.37,0s-0.94,0-1.37,0
		c-0.22-4.09-0.4-8.15-0.56-12.18s-0.35-8.09-0.56-12.18c-2.15,3.98-4.25,7.98-6.29,12.02c-2.04,4.03-3.87,8.15-5.48,12.34
		c-0.54,0-1.05,0-1.53,0s-0.89,0-1.21,0c-1.08-3.55-2.77-7.1-5.08-10.65s-4.27-6.88-5.89-10c-0.22,0.11-0.43,0.22-0.65,0.32
		c-0.22,0.11-0.38,0.16-0.48,0.16c-0.54,8.82-0.86,14.06-0.97,15.73s-0.27,2.98-0.48,3.95
		C-1032.84,413.35-1033.7,413.72-1034.77,413.83z"/>
	<path fill="#808285" stroke="#808285" stroke-width="2.2463" stroke-miterlimit="10" d="M-982.67,412.38
		c-1.51-0.54-3.66-1.45-6.45-2.74c-0.65-1.07-1.24-2.18-1.77-3.31c-0.54-1.13-1.08-2.28-1.61-3.47c0-4.62,0.38-8.57,1.13-11.86
		c0.75-3.28,3.01-6.53,6.78-9.76c3.01-1.83,6.29-2.12,9.84-0.89c3.55,1.24,6.29,3.2,8.23,5.89c0.11,0,0.48,0.11,1.13,0.32
		c3.98,7.85,4.09,14.03,0.32,18.55C-968.85,409.64-974.71,412.06-982.67,412.38z M-979.93,409.15c11.4-1.83,15.97-7.58,13.71-17.26
		c-4.62-6.45-9.95-9.25-15.97-8.39c-7.53,6.56-9.14,14.46-4.84,23.71c1.18,0.32,2.34,0.65,3.47,0.97
		C-982.43,408.51-981.22,408.83-979.93,409.15z"/>
	<path fill="#808285" stroke="#808285" stroke-width="2.2463" stroke-miterlimit="10" d="M-940.24,410.77
		c-0.22-0.11-0.43-0.21-0.65-0.32c-0.22-0.11-0.38-0.27-0.48-0.48c0.11-11.94,0.16-19.01,0.16-21.21c0-2.2,0-3.84,0-4.92
		c-1.72,0-3.42-0.03-5.08-0.08c-1.67-0.05-3.31-0.08-4.92-0.08c0-0.65-0.03-1.24-0.08-1.77c-0.06-0.54-0.08-1.13-0.08-1.77
		c0.21-0.21,0.43-0.43,0.65-0.65c4.19,0.22,8.44,0.3,12.74,0.24c4.3-0.05,8.55-0.08,12.74-0.08c1.61,1.61,2.42,2.85,2.42,3.71
		c-1.61,0.97-3.87,1.29-6.77,0.97s-5.32-0.48-7.26-0.48c-1.08,1.18-1.48,5.35-1.21,12.5c0.27,7.15,0.4,11.7,0.4,13.63
		C-938.09,410.28-938.95,410.55-940.24,410.77z"/>
	<path fill="#808285" stroke="#808285" stroke-width="2.2463" stroke-miterlimit="10" d="M-909.11,409.48
		c-0.22-0.11-0.38-0.24-0.48-0.4c-0.11-0.16-0.22-0.35-0.32-0.56c-0.11-4.19-0.19-8.47-0.24-12.82c-0.06-4.36-0.08-8.74-0.08-13.15
		c0.43,0,0.86,0,1.29,0s0.91,0,1.45,0c0.21,0.43,0.54,0.97,0.97,1.61c0,4.19,0.13,8.39,0.4,12.58c0.27,4.19,0.08,8.28-0.56,12.26
		c-0.43,0.11-0.86,0.22-1.29,0.32C-908.41,409.42-908.79,409.48-909.11,409.48z"/>
	<path fill="#808285" stroke="#808285" stroke-width="2.2463" stroke-miterlimit="10" d="M-889.92,412.38
		c-1.51-0.54-3.66-1.45-6.45-2.74c-0.65-1.07-1.24-2.18-1.77-3.31c-0.54-1.13-1.08-2.28-1.61-3.47c0-4.62,0.38-8.57,1.13-11.86
		c0.75-3.28,3.01-6.53,6.78-9.76c3.01-1.83,6.29-2.12,9.84-0.89c3.55,1.24,6.29,3.2,8.23,5.89c0.11,0,0.48,0.11,1.13,0.32
		c3.98,7.85,4.09,14.03,0.32,18.55C-876.1,409.64-881.96,412.06-889.92,412.38z M-887.17,409.15c11.4-1.83,15.97-7.58,13.71-17.26
		c-4.62-6.45-9.95-9.25-15.97-8.39c-7.53,6.56-9.14,14.46-4.84,23.71c1.18,0.32,2.34,0.65,3.47,0.97
		C-889.67,408.51-888.46,408.83-887.17,409.15z"/>
	<path fill="#808285" stroke="#808285" stroke-width="2.2463" stroke-miterlimit="10" d="M-827.49,413.83
		c-0.75-0.86-1.83-2.47-3.23-4.84c-3.98-4.3-6.32-6.86-7.02-7.66c-0.7-0.81-1.16-1.53-1.37-2.18c-0.11,0-0.24,0-0.4,0s-0.3,0-0.4,0
		c-0.43-1.4-2.34-4.03-5.73-7.9c-3.39-3.87-5.46-5.91-6.21-6.13l-0.65,0.65c0.21,11.4,0.43,18.39,0.65,20.97
		c0.21,2.58,0.32,4.41,0.32,5.48c-0.65,0.54-1.61,0.54-2.9,0c-1.29-3.66-1.77-8.58-1.45-14.76c0.32-6.18,0.48-11.21,0.48-15.08
		c0.11-0.32,0.32-1.07,0.65-2.26c2.58-0.97,4.19-0.86,4.84,0.32s1.56,2.8,2.74,4.84c4.73,5.48,7.69,8.98,8.87,10.48
		c1.18,1.51,3.06,3.87,5.65,7.1c0.97,0.65,1.94,1.72,2.9,3.23c0.21,0,0.43-0.03,0.65-0.08c0.21-0.05,0.48-0.13,0.81-0.24
		c0-4.09-0.03-8.17-0.08-12.26c-0.06-4.09,0.19-8.17,0.73-12.26c1.72,0,2.96,0.16,3.71,0.48c0,0.64,0,1.26,0,1.85s0,1.21,0,1.86
		c-0.22,0.22-0.4,0.38-0.56,0.48c-0.16,0.11-0.3,0.22-0.4,0.32c0,4.52,0,8.95,0,13.31s0,8.69,0,12.99
		C-825.66,413.29-826.52,413.72-827.49,413.83z"/>
	<path fill="#808285" stroke="#808285" stroke-width="2.2463" stroke-miterlimit="10" d="M-761.19,412.22
		c-5.06-1.29-9.38-3.01-12.98-5.16c-3.61-2.15-4.54-6.5-2.82-13.07c2.26-3.87,5.16-7.26,8.71-10.16c3.23-1.4,7.07-1.88,11.53-1.45
		s7.39,2.64,8.79,6.61c-0.22,0.22-0.43,0.48-0.64,0.81c-0.64,0.11-1.67,0.16-3.06,0.16c-3.01-3.66-6.64-5-10.89-4.03
		s-7.5,3.39-9.76,7.26c-1.72,4.95-1.64,8.31,0.24,10.08s5.08,3.42,9.6,4.92c2.9,0,5.86-0.62,8.87-1.85
		c3.01-1.24,4.78-3.57,5.32-7.02c-4.09,0.32-6.94,0.54-8.55,0.65s-5.32,0.22-11.13,0.32c0-0.32,0-0.7,0-1.13s0-0.86,0-1.29
		c1.4-0.97,5.27-1.72,11.62-2.26c6.34-0.54,10.48-0.16,12.42,1.13c0.21,5.16-1.59,8.85-5.4,11.05
		C-753.15,409.99-757.1,411.47-761.19,412.22z"/>
	<path fill="#808285" stroke="#808285" stroke-width="2.2463" stroke-miterlimit="10" d="M-712.15,410.12
		c-0.86-0.43-1.45-1.4-1.77-2.9c-5.06-4.95-10.16-7.9-15.32-8.87c-0.65,1.4-0.81,3.04-0.48,4.92c0.32,1.88,0.48,3.58,0.48,5.08
		c-0.54,0-1.08,0-1.61,0c-0.54,0-1.08,0-1.61,0c-1.18-1.72-1.51-3.39-0.97-5c-0.11-3.33-0.19-6.67-0.24-10s-0.08-6.72-0.08-10.16
		c0.54-0.64,1.5-1.13,2.9-1.45c4.62-0.11,10.3,0.08,17.02,0.56c6.72,0.48,7.88,4.44,3.47,11.86c-1.61,1.29-4.41,2.53-8.39,3.71
		c0.75,1.51,3.06,3.52,6.94,6.05C-707.96,406.44-708.07,408.51-712.15,410.12z M-729.9,394.31c3.12,0,5.99-0.05,8.63-0.16
		c2.63-0.11,5.4-0.75,8.31-1.94c1.83-3.87,0.48-6.24-4.03-7.1c-4.73,0-8.36,0-10.89,0C-730.41,385.12-731.08,388.18-729.9,394.31z"
		/>
	<path fill="#808285" stroke="#808285" stroke-width="2.2463" stroke-miterlimit="10" d="M-695.86,414.15
		c-0.11-0.54-0.19-1.05-0.24-1.53c-0.06-0.48-0.08-0.99-0.08-1.53c0.97-1.83,1.91-3.92,2.82-6.29c0.91-2.36,3.79-9.78,8.63-22.26
		c0.32-2.58,1.4-3.87,3.23-3.87c2.9,4.84,5.08,10.11,6.53,15.81s2.98,11.29,4.6,16.78c-0.11,0.43-0.16,1.13-0.16,2.1
		c-0.43,0.32-1.35,0.48-2.74,0.48c0.65,0.97-0.43-2.42-3.23-10.16c-1.94-0.11-4.03-0.32-6.29-0.65c-2.26-0.32-4.25-0.21-5.97,0.32
		c-1.83,4.52-2.93,7.21-3.31,8.07c-0.38,0.86-0.83,1.67-1.37,2.42C-693.98,413.83-694.79,413.94-695.86,414.15z M-686.83,399.31
		c1.4,0,2.79,0,4.19,0s2.85,0,4.36,0c0.32-1.72-0.08-4-1.21-6.86c-1.13-2.85-1.91-5.24-2.34-7.18c-0.22,0-0.4,0-0.57,0
		c-0.16,0-0.3,0-0.4,0c-0.65,2.04-1.56,4.41-2.74,7.1C-686.72,395.07-687.15,397.38-686.83,399.31z"/>
	<path fill="#808285" stroke="#808285" stroke-width="2.2463" stroke-miterlimit="10" d="M-662.47,415.28
		c-0.11-0.21-0.38-0.54-0.81-0.97c0-5.59,0-11.24,0-16.94s0-11.4,0-17.1c1.07-2.26,3.92-2.66,8.55-1.21
		c4.62,1.45,7.8,2.61,9.52,3.47c1.29,1.72,2.26,3.06,2.9,4.03c0.11,0,0.21,0,0.32,0s0.27,0,0.48,0c0,0.86,0,1.69,0,2.5
		s0,1.59,0,2.34c-0.32,0-0.59,0.06-0.81,0.16c-1.61,3.66-4.06,5.59-7.34,5.81s-6.53,0.32-9.76,0.32c-0.32,0.43-0.48,1.21-0.48,2.34
		s0,4.92,0,11.37c0.32,1.61,0.32,2.8,0,3.55C-660.53,414.96-661.39,415.07-662.47,415.28z M-658.6,394.8
		c4.62-0.32,8.33-1.02,11.13-2.1c3.98-3.55,3.57-6.32-1.21-8.31c-4.79-1.99-8.31-2.44-10.57-1.37c0,1.61-0.14,3.68-0.4,6.21
		C-659.92,391.76-659.57,393.61-658.6,394.8z"/>
	<path fill="#808285" stroke="#808285" stroke-width="2.2463" stroke-miterlimit="10" d="M-632.63,413.19
		c-0.54-4.19-0.56-8.55-0.08-13.07c0.48-4.52,0.73-8.92,0.73-13.23c-0.65-1.18-0.86-2.9-0.65-5.16c3.55,0.32,5.21,2.1,5,5.32
		c-0.22,3.23-0.32,6.24-0.32,9.03c1.61,0,5.13,0.08,10.57,0.24c5.43,0.16,9.11-0.4,11.05-1.69c0.32-3.55,0.51-5.83,0.56-6.86
		c0.05-1.02,0.08-2.71,0.08-5.08c-1.51-2.04-1.77-3.55-0.81-4.52c0.32,0,0.7,0,1.13,0s0.86,0,1.29,0c0.21,0.32,0.4,0.62,0.57,0.89
		c0.16,0.27,0.4,0.51,0.73,0.73c0.11,5.27,0.13,10.54,0.08,15.81c-0.06,5.27-0.08,10.49-0.08,15.65c-1.29,0.86-2.48,1.18-3.55,0.97
		c-0.11-2.15-0.22-4.3-0.32-6.45c-0.11-2.15-0.16-4.36-0.16-6.61c-7.21,0.32-11.69,0.51-13.47,0.56c-1.77,0.06-4.44,0.24-7.99,0.56
		c0,1.94,0.11,4.14,0.32,6.61c0.21,2.47-0.22,4.41-1.29,5.81c-0.64,0.11-1.24,0.22-1.77,0.32
		C-631.55,413.13-632.09,413.19-632.63,413.19z"/>
	<path fill="#808285" stroke="#808285" stroke-width="2.2463" stroke-miterlimit="10" d="M-588.75,409.48
		c-0.22-0.11-0.38-0.24-0.48-0.4c-0.11-0.16-0.22-0.35-0.32-0.56c-0.11-4.19-0.19-8.47-0.24-12.82c-0.06-4.36-0.08-8.74-0.08-13.15
		c0.43,0,0.86,0,1.29,0s0.91,0,1.45,0c0.21,0.43,0.54,0.97,0.97,1.61c0,4.19,0.13,8.39,0.4,12.58c0.27,4.19,0.08,8.28-0.56,12.26
		c-0.43,0.11-0.86,0.22-1.29,0.32C-588.05,409.42-588.43,409.48-588.75,409.48z"/>
	<path fill="#808285" stroke="#808285" stroke-width="2.2463" stroke-miterlimit="10" d="M-568.1,414.15
		c-4.62-2.9-7.72-5.51-9.28-7.82c-1.56-2.31-2.34-6.32-2.34-12.02c1.07-3.23,1.77-5.24,2.1-6.05c0.32-0.81,0.91-1.91,1.77-3.31
		c7.74-4.19,15-4.57,21.78-1.13c0.43,2.04,0.59,3.39,0.48,4.03c-2.26,0.22-3.47,0.06-3.63-0.48c-0.16-0.54-1-1.18-2.5-1.94
		c-5.59,0-9.6,0.92-12.02,2.74c-2.42,1.83-3.63,5.81-3.63,11.94c1.94,4.95,4.11,7.66,6.53,8.15c2.42,0.48,6.21,0.73,11.37,0.73
		c0.97-1.4,2.53-3.49,4.68-6.29c0.54,0,1.1,0,1.69,0s1.21,0,1.86,0c0,5.48-2.07,8.71-6.21,9.68
		C-559.58,413.35-563.8,413.94-568.1,414.15z"/>
	<path fill="#808285" stroke="#808285" stroke-width="2.2463" stroke-miterlimit="10" d="M-530.52,410.6
		c-1.94-0.65-4.3-1.32-7.1-2.02c-2.8-0.7-4.14-2.34-4.03-4.92c1.07-0.97,2.39-0.94,3.95,0.08s2.88,1.75,3.95,2.18
		c3.55,0.97,7.5,0.83,11.86-0.4c4.36-1.24,5.99-4.33,4.92-9.28c-3.55-3.23-8.07-4.06-13.55-2.5s-9.36,0.03-11.61-4.6
		c0-6.24,4.33-9.52,12.99-9.84s12.88,2.37,12.66,8.07c-0.54,0-1.02,0-1.45,0s-0.86,0-1.29,0c-2.26-3.76-6.43-4.97-12.5-3.63
		c-6.08,1.35-7.88,3.36-5.4,6.05c3.55,0,7.63-0.05,12.26-0.16c4.62-0.11,8.39,1.29,11.29,4.19c2.47,6.67-0.43,11.99-8.71,15.97
		c-1.4,0.22-2.8,0.38-4.19,0.48C-527.88,410.39-529.23,410.5-530.52,410.6z"/>
</g>
<g>
	<polygon fill="#4FBFB5" points="37.75,171.62 70.7,158.14 96.16,256.23 112.63,171.62 129.1,170.87 154.56,225.53 194.24,110.22 
		220.45,110.22 164.29,274.95 145.57,274.95 123.86,216.55 105.14,306.4 81.93,312.39 	"/>
</g>
<g>
	<polygon fill="#4FBFB5" points="199.49,195.96 205.1,179.11 224.94,179.11 225.88,195.96 	"/>
</g>
<g>
	<polygon fill="#4FBFB5" points="199.49,209.43 225.88,209.43 220.45,270.08 203.98,270.08 	"/>
</g>
<g>
	<polygon fill="#4FBFB5" points="229.81,152.15 266.31,145.41 263.51,276.26 311.8,276.26 311.8,293.11 241.04,293.11 	"/>
</g>
<g>
	<polygon fill="#4FBFB5" points="274.18,156.08 303.94,151.03 300.01,250.99 326.97,250.99 329.21,265.59 277.55,265.59 	"/>
</g>
<g>
	<polygon fill="#4FBFB5" points="333.7,174.62 361.78,174.62 360.66,191.18 332.86,194.27 	"/>
</g>
<g>
	<polygon fill="#4FBFB5" points="334.55,204.66 362.06,204.1 356.73,267.28 342.13,267.56 	"/>
</g>
<g>
	<path fill="#4FBFB5" d="M352.24,155.9v-23.96l57.66-2.25L435.35,248c0,0,14.56,83.11,43.05,83.11c28.83,0,28.08-35.94,28.08-35.94
		l44.93,8.99c0,0-5.24,61.4-65.14,63.65s-74.13-90.6-74.13-90.6l-19.47,1.5v15.72l-26.96-3l12.73-138.52L352.24,155.9z
		 M406.15,262.22l-6.74-21.71l-5.24,23.21L406.15,262.22z"/>
</g>
<g>
	<polygon fill="#4FBFB5" points="436.85,195.58 459.31,284.69 484.77,277.95 475.04,248 492.26,264.47 509.48,263.72 528.95,234.52 
		522.96,282.44 551.41,286.93 556.65,191.84 534.94,188.09 496,233.39 494.5,233.77 457.07,189.59 	"/>
</g>
<g>
	<polygon fill="#037684" points="245.54,374.54 280.73,370.8 277.73,439.68 307.68,435.94 306.94,367.8 340.63,367.8 332.39,482.36 
		302.44,481.61 302.44,468.14 276.98,468.88 275.49,482.36 253.77,484.61 	"/>
</g>
<g>
	<polygon fill="#037684" points="434.98,388.77 458.94,379.78 470.92,436.69 479.9,389.51 503.86,383.52 526.33,436.69 
		549.54,346.83 574.25,356.57 541.3,468.14 515.1,468.14 492.63,421.71 482.15,474.13 452.2,472.63 	"/>
</g>
<g>
	<path fill="#037684" d="M339.13,349.08l3-32.95l68.89,1.5l20.22,157.99l-28.45,4.49l-3.74-12.73l-24.71,0.75l-1.5,8.99l-27.7,0.75
		l22.46-133.28L339.13,349.08z M380.32,453.16l13.48-2.25l-8.24-14.98L380.32,453.16z"/>
</g>
<g>
	<path fill="#037684" d="M303.04,349.09l6.52-38.61c0,0-250.99-31.77-245.49,53.75c0.11,36.15,81.83,37.71,81.83,37.71
		s53.75,6.42,53.75,25.67c0,12.03-22.46,39.31-130.77,20.86l-12.03,26.47c0,0,166.07,44.28,179.71-36.74
		c0,0,10.33-47.17-87.45-57.92c-23.15-2.73-46.55-3.42-46.55-21.07C102.55,359.2,89.64,309.78,303.04,349.09z"/>
</g>
<g>
	<path fill="#808285" stroke="#808285" stroke-width="2.2463" stroke-miterlimit="10" d="M-1189.38,724.92
		c-5.06-1.29-9.38-3.01-12.99-5.16c-3.6-2.15-4.54-6.5-2.82-13.07c2.26-3.87,5.16-7.26,8.71-10.16c3.23-1.4,7.07-1.88,11.53-1.45
		c4.46,0.43,7.39,2.64,8.79,6.61c-0.22,0.22-0.43,0.48-0.65,0.81c-0.65,0.11-1.67,0.16-3.06,0.16c-3.01-3.66-6.64-5-10.89-4.03
		s-7.5,3.39-9.76,7.26c-1.72,4.95-1.64,8.31,0.24,10.08s5.08,3.42,9.6,4.92c2.9,0,5.86-0.62,8.87-1.85
		c3.01-1.24,4.78-3.57,5.32-7.02c-4.09,0.32-6.94,0.54-8.55,0.65c-1.61,0.11-5.32,0.22-11.13,0.32c0-0.32,0-0.7,0-1.13
		s0-0.86,0-1.29c1.4-0.97,5.27-1.72,11.61-2.26c6.34-0.54,10.48-0.16,12.42,1.13c0.21,5.16-1.59,8.85-5.4,11.05
		C-1181.35,722.69-1185.3,724.17-1189.38,724.92z"/>
	<path fill="#808285" stroke="#808285" stroke-width="2.2463" stroke-miterlimit="10" d="M-1140.35,722.83
		c-0.86-0.43-1.45-1.4-1.77-2.9c-5.06-4.95-10.16-7.9-15.32-8.87c-0.65,1.4-0.81,3.04-0.48,4.92c0.32,1.88,0.48,3.58,0.48,5.08
		c-0.54,0-1.08,0-1.61,0c-0.54,0-1.08,0-1.61,0c-1.18-1.72-1.51-3.39-0.97-5c-0.11-3.33-0.19-6.67-0.24-10
		c-0.06-3.33-0.08-6.72-0.08-10.16c0.54-0.64,1.5-1.13,2.9-1.45c4.62-0.11,10.3,0.08,17.02,0.56s7.88,4.44,3.47,11.86
		c-1.61,1.29-4.41,2.53-8.39,3.71c0.75,1.51,3.06,3.52,6.94,6.05C-1136.15,719.14-1136.26,721.21-1140.35,722.83z M-1158.09,707.02
		c3.12,0,5.99-0.05,8.63-0.16c2.63-0.11,5.4-0.75,8.31-1.94c1.83-3.87,0.48-6.24-4.03-7.1c-4.73,0-8.36,0-10.89,0
		C-1158.6,697.82-1159.27,700.89-1158.09,707.02z"/>
	<path fill="#808285" stroke="#808285" stroke-width="2.2463" stroke-miterlimit="10" d="M-1124.05,726.86
		c-0.11-0.54-0.19-1.05-0.24-1.53c-0.06-0.48-0.08-0.99-0.08-1.53c0.97-1.83,1.91-3.92,2.82-6.29c0.91-2.36,3.79-9.78,8.63-22.26
		c0.32-2.58,1.4-3.87,3.23-3.87c2.9,4.84,5.08,10.11,6.53,15.81c1.45,5.7,2.98,11.29,4.6,16.78c-0.11,0.43-0.16,1.13-0.16,2.1
		c-0.43,0.32-1.35,0.48-2.74,0.48c0.65,0.97-0.43-2.42-3.23-10.16c-1.94-0.11-4.03-0.32-6.29-0.65c-2.26-0.32-4.25-0.21-5.97,0.32
		c-1.83,4.52-2.93,7.21-3.31,8.07s-0.83,1.67-1.37,2.42C-1122.17,726.54-1122.98,726.64-1124.05,726.86z M-1115.02,712.02
		c1.4,0,2.8,0,4.19,0c1.4,0,2.85,0,4.36,0c0.32-1.72-0.08-4-1.21-6.86c-1.13-2.85-1.91-5.24-2.34-7.18c-0.22,0-0.4,0-0.56,0
		s-0.3,0-0.4,0c-0.65,2.04-1.56,4.41-2.74,7.1C-1114.91,707.77-1115.34,710.08-1115.02,712.02z"/>
	<path fill="#808285" stroke="#808285" stroke-width="2.2463" stroke-miterlimit="10" d="M-1090.66,727.99
		c-0.11-0.21-0.38-0.54-0.81-0.97c0-5.59,0-11.24,0-16.94s0-11.4,0-17.1c1.07-2.26,3.92-2.66,8.55-1.21
		c4.62,1.45,7.8,2.61,9.52,3.47c1.29,1.72,2.26,3.06,2.9,4.03c0.11,0,0.21,0,0.32,0s0.27,0,0.48,0c0,0.86,0,1.69,0,2.5
		s0,1.59,0,2.34c-0.32,0-0.59,0.06-0.81,0.16c-1.61,3.66-4.06,5.59-7.34,5.81c-3.28,0.22-6.53,0.32-9.76,0.32
		c-0.32,0.43-0.48,1.21-0.48,2.34s0,4.92,0,11.37c0.32,1.61,0.32,2.8,0,3.55C-1088.73,727.67-1089.59,727.77-1090.66,727.99z
		 M-1086.79,707.5c4.62-0.32,8.33-1.02,11.13-2.1c3.98-3.55,3.57-6.32-1.21-8.31c-4.79-1.99-8.31-2.44-10.57-1.37
		c0,1.61-0.14,3.68-0.4,6.21C-1088.11,704.46-1087.76,706.32-1086.79,707.5z"/>
	<path fill="#808285" stroke="#808285" stroke-width="2.2463" stroke-miterlimit="10" d="M-1060.82,725.89
		c-0.54-4.19-0.56-8.55-0.08-13.07s0.73-8.92,0.73-13.23c-0.65-1.18-0.86-2.9-0.65-5.16c3.55,0.32,5.21,2.1,5,5.32
		c-0.22,3.23-0.32,6.24-0.32,9.03c1.61,0,5.13,0.08,10.57,0.24c5.43,0.16,9.11-0.4,11.05-1.69c0.32-3.55,0.51-5.83,0.56-6.86
		c0.05-1.02,0.08-2.71,0.08-5.08c-1.51-2.04-1.77-3.55-0.81-4.52c0.32,0,0.7,0,1.13,0s0.86,0,1.29,0c0.21,0.32,0.4,0.62,0.56,0.89
		s0.4,0.51,0.73,0.73c0.11,5.27,0.13,10.54,0.08,15.81c-0.06,5.27-0.08,10.49-0.08,15.65c-1.29,0.86-2.48,1.18-3.55,0.97
		c-0.11-2.15-0.22-4.3-0.32-6.45c-0.11-2.15-0.16-4.36-0.16-6.61c-7.21,0.32-11.69,0.51-13.47,0.56c-1.77,0.06-4.44,0.24-7.98,0.56
		c0,1.94,0.11,4.14,0.32,6.61s-0.22,4.41-1.29,5.81c-0.65,0.11-1.24,0.22-1.77,0.32C-1059.75,725.84-1060.28,725.89-1060.82,725.89z
		"/>
	<path fill="#808285" stroke="#808285" stroke-width="2.2463" stroke-miterlimit="10" d="M-1016.94,722.18
		c-0.22-0.11-0.38-0.24-0.48-0.4c-0.11-0.16-0.22-0.35-0.32-0.56c-0.11-4.19-0.19-8.47-0.24-12.82c-0.06-4.36-0.08-8.74-0.08-13.15
		c0.43,0,0.86,0,1.29,0s0.91,0,1.45,0c0.21,0.43,0.54,0.97,0.97,1.61c0,4.19,0.13,8.39,0.4,12.58s0.08,8.28-0.56,12.26
		c-0.43,0.11-0.86,0.22-1.29,0.32C-1016.25,722.13-1016.62,722.18-1016.94,722.18z"/>
	<path fill="#808285" stroke="#808285" stroke-width="2.2463" stroke-miterlimit="10" d="M-996.3,726.86
		c-4.62-2.9-7.72-5.51-9.28-7.82c-1.56-2.31-2.34-6.32-2.34-12.02c1.07-3.23,1.77-5.24,2.1-6.05c0.32-0.81,0.91-1.91,1.77-3.31
		c7.74-4.19,15-4.57,21.78-1.13c0.43,2.04,0.59,3.39,0.48,4.03c-2.26,0.22-3.47,0.06-3.63-0.48c-0.16-0.54-1-1.18-2.5-1.94
		c-5.59,0-9.6,0.92-12.02,2.74c-2.42,1.83-3.63,5.81-3.63,11.94c1.94,4.95,4.11,7.66,6.53,8.15c2.42,0.48,6.21,0.73,11.37,0.73
		c0.97-1.4,2.53-3.49,4.68-6.29c0.54,0,1.1,0,1.69,0s1.21,0,1.86,0c0,5.48-2.07,8.71-6.21,9.68
		C-987.78,726.05-992,726.64-996.3,726.86z"/>
	<path fill="#808285" stroke="#808285" stroke-width="2.2463" stroke-miterlimit="10" d="M-924.03,728.47
		c-3.01-0.32-5.16-0.97-6.45-1.94c-0.22-5.49-0.06-11.1,0.48-16.86c0.54-5.75,1.13-11.37,1.77-16.86c2.04-0.75,4.33-0.94,6.86-0.56
		c2.53,0.38,4.92,0.62,7.18,0.73c10.43,3.87,15.65,11.72,15.65,23.55c-2.58,4.62-4.68,7.53-6.29,8.71s-5.11,2.21-10.49,3.07
		C-919.19,728.31-922.1,728.37-924.03,728.47z M-923.06,724.92c4.62-0.21,8.87-0.62,12.74-1.21s6.61-3.47,8.23-8.63
		c0-5.7-1.94-10.97-5.81-15.81c-5.16-2.04-10.75-3.33-16.78-3.87c-0.86,4.52-1.48,9.25-1.86,14.2s-0.24,9.68,0.4,14.19
		C-924.84,723.9-923.82,724.28-923.06,724.92z"/>
	<path fill="#808285" stroke="#808285" stroke-width="2.2463" stroke-miterlimit="10" d="M-885.8,725.41
		c-3.23-0.75-5.06-1.34-5.48-1.77c0-4.19,0.16-8.49,0.48-12.9c0.32-4.41,0.16-8.71-0.48-12.91c0.65-0.97,1.5-1.88,2.58-2.74
		c8.49,0.32,13.6,0.51,15.32,0.56c1.72,0.06,3.49,0.24,5.32,0.57c0,2.04-0.16,3.28-0.48,3.71c-2.26-0.43-5.4-0.81-9.44-1.13
		c-4.03-0.32-7.02-0.05-8.95,0.81c0,1.29,0,2.58,0,3.87s0,2.58,0,3.87c1.94,0,4.7-0.11,8.31-0.32c3.6-0.21,6.32,0.16,8.15,1.13
		c0,0.54,0,1.08,0,1.61c0,0.54,0,1.02,0,1.45c-1.51,0.97-4.09,1.24-7.74,0.81c-3.66-0.43-6.35-0.64-8.07-0.64
		c-0.97,0.75-1.43,2.29-1.37,4.6c0.05,2.31,0.46,3.9,1.21,4.76c2.9,0.11,5.86,0.19,8.87,0.24c3.01,0.06,6.02,0.08,9.03,0.08
		c0.65,1.29,0.65,2.64,0,4.03c-0.86,0.11-2.18,0.11-3.95,0C-874.27,724.98-878.7,725.08-885.8,725.41z"/>
	<path fill="#808285" stroke="#808285" stroke-width="2.2463" stroke-miterlimit="10" d="M-849.18,723.31
		c-1.94-0.65-4.3-1.32-7.1-2.02s-4.14-2.34-4.03-4.92c1.07-0.97,2.39-0.94,3.95,0.08s2.88,1.75,3.95,2.18
		c3.55,0.97,7.5,0.83,11.86-0.4c4.36-1.24,5.99-4.33,4.92-9.28c-3.55-3.23-8.07-4.06-13.55-2.5s-9.36,0.03-11.61-4.6
		c0-6.24,4.33-9.52,12.99-9.84s12.88,2.37,12.66,8.07c-0.54,0-1.02,0-1.45,0s-0.86,0-1.29,0c-2.26-3.76-6.43-4.97-12.5-3.63
		c-6.08,1.35-7.88,3.36-5.4,6.05c3.55,0,7.63-0.05,12.26-0.16c4.62-0.11,8.39,1.29,11.29,4.19c2.47,6.67-0.43,11.99-8.71,15.97
		c-1.4,0.22-2.8,0.38-4.19,0.48C-846.55,723.1-847.89,723.2-849.18,723.31z"/>
	<path fill="#808285" stroke="#808285" stroke-width="2.2463" stroke-miterlimit="10" d="M-814.66,722.18
		c-0.22-0.11-0.38-0.24-0.48-0.4c-0.11-0.16-0.22-0.35-0.32-0.56c-0.11-4.19-0.19-8.47-0.24-12.82c-0.06-4.36-0.08-8.74-0.08-13.15
		c0.43,0,0.86,0,1.29,0s0.91,0,1.45,0c0.21,0.43,0.54,0.97,0.97,1.61c0,4.19,0.13,8.39,0.4,12.58s0.08,8.28-0.56,12.26
		c-0.43,0.11-0.86,0.22-1.29,0.32C-813.96,722.13-814.34,722.18-814.66,722.18z"/>
	<path fill="#808285" stroke="#808285" stroke-width="2.2463" stroke-miterlimit="10" d="M-786.92,724.92
		c-5.06-1.29-9.38-3.01-12.99-5.16c-3.6-2.15-4.54-6.5-2.82-13.07c2.26-3.87,5.16-7.26,8.71-10.16c3.23-1.4,7.07-1.88,11.53-1.45
		s7.39,2.64,8.79,6.61c-0.22,0.22-0.43,0.48-0.64,0.81c-0.65,0.11-1.67,0.16-3.07,0.16c-3.01-3.66-6.64-5-10.89-4.03
		s-7.5,3.39-9.76,7.26c-1.72,4.95-1.64,8.31,0.24,10.08s5.08,3.42,9.6,4.92c2.9,0,5.86-0.62,8.87-1.85
		c3.01-1.24,4.78-3.57,5.32-7.02c-4.09,0.32-6.94,0.54-8.55,0.65c-1.61,0.11-5.32,0.22-11.13,0.32c0-0.32,0-0.7,0-1.13
		s0-0.86,0-1.29c1.4-0.97,5.27-1.72,11.61-2.26c6.34-0.54,10.49-0.16,12.42,1.13c0.21,5.16-1.59,8.85-5.4,11.05
		C-778.88,722.69-782.83,724.17-786.92,724.92z"/>
	<path fill="#808285" stroke="#808285" stroke-width="2.2463" stroke-miterlimit="10" d="M-729.98,726.54
		c-0.75-0.86-1.83-2.47-3.23-4.84c-3.98-4.3-6.32-6.86-7.02-7.66c-0.7-0.81-1.16-1.53-1.37-2.18c-0.11,0-0.24,0-0.4,0s-0.3,0-0.4,0
		c-0.43-1.4-2.34-4.03-5.73-7.9c-3.39-3.87-5.46-5.91-6.21-6.13l-0.65,0.65c0.21,11.4,0.43,18.39,0.65,20.97
		c0.21,2.58,0.32,4.41,0.32,5.48c-0.65,0.54-1.61,0.54-2.9,0c-1.29-3.66-1.77-8.58-1.45-14.76s0.48-11.21,0.48-15.08
		c0.11-0.32,0.32-1.07,0.64-2.26c2.58-0.97,4.19-0.86,4.84,0.32s1.56,2.8,2.74,4.84c4.73,5.48,7.69,8.98,8.87,10.48
		c1.18,1.51,3.06,3.87,5.65,7.1c0.97,0.65,1.94,1.72,2.9,3.23c0.21,0,0.43-0.03,0.65-0.08c0.21-0.05,0.48-0.13,0.81-0.24
		c0-4.09-0.03-8.17-0.08-12.26s0.19-8.17,0.73-12.26c1.72,0,2.96,0.16,3.71,0.48c0,0.64,0,1.26,0,1.85c0,0.59,0,1.21,0,1.86
		c-0.22,0.22-0.4,0.38-0.56,0.48c-0.16,0.11-0.3,0.22-0.4,0.32c0,4.52,0,8.95,0,13.31s0,8.69,0,12.99
		C-728.15,726-729.01,726.43-729.98,726.54z"/>
</g>
</svg>
