<?xml version="1.0" encoding="utf-8"?>
<!-- Generator: Adobe Illustrator 17.0.2, SVG Export Plug-In . SVG Version: 6.00 Build 0)  -->
<!DOCTYPE svg PUBLIC "-//W3C//DTD SVG 1.1//EN" "http://www.w3.org/Graphics/SVG/1.1/DTD/svg11.dtd">
<svg version="1.1" id="Layer_1" xmlns="http://www.w3.org/2000/svg" xmlns:xlink="http://www.w3.org/1999/xlink" x="0px" y="0px"
	 width="612px" height="612px" viewBox="0 0 612 612" style="enable-background:new 0 0 612 612;" xml:space="preserve">
<style type="text/css">
	.st0{fill:#BED737;}
	.st1{fill:#D1D3D4;}
	.st2{fill:#808285;stroke:#808285;stroke-width:2.2463;stroke-miterlimit:10;}
	.st3{fill:#4FBFB5;}
	.st4{fill:#037684;}
</style>
<g>
	<path class="st0" d="M-685.71,80.44v25.82h0.21v1.47c0,2.94,1.05,5.49,3.15,7.66c2.1,2.17,4.69,3.25,7.77,3.25
		c0.7,0,1.36-0.07,1.99-0.21c0.63-0.14,1.29-0.35,1.99-0.63v19.31c-0.7,0-1.4,0.03-2.1,0.1c-0.7,0.07-1.4,0.1-2.1,0.1
		c-4.2,0-8.12-0.73-11.75-2.2c-3.64-1.47-6.82-3.53-9.55-6.19c-2.73-2.66-4.93-5.74-6.61-9.24c-1.68-3.5-2.66-7.27-2.94-11.33h-0.21
		V80.44V62.6V49.38h-14.9V31.54h14.9v-56.88h20.15v56.88h15.11v17.84h-15.11V62.6V80.44z"/>
	<path class="st0" d="M-650.04,53.79c0.14-3.92,1.01-7.59,2.62-11.02c1.61-3.43,3.74-6.43,6.4-9.03c2.66-2.59,5.8-4.62,9.44-6.09
		c3.64-1.47,7.48-2.2,11.54-2.2c5.32,0,10.35,1.19,15.11,3.57v-2.73h19.94V136.9h-19.94v-2.73c-4.9,2.24-9.94,3.36-15.11,3.36
		c-4.06,0-7.91-0.73-11.54-2.2c-3.64-1.47-6.82-3.5-9.55-6.09c-2.73-2.59-4.9-5.63-6.51-9.13c-1.61-3.5-2.41-7.21-2.41-11.12v-4.41
		V88.63V71V60.92V53.79z M-630.73,108.15c0,2.8,1.05,5.21,3.15,7.24c2.1,2.03,4.62,3.04,7.56,3.04c1.4,0,2.87-0.28,4.41-0.84
		c1.54-0.56,2.94-1.29,4.2-2.2c1.26-0.91,2.31-1.99,3.15-3.25c0.84-1.26,1.26-2.59,1.26-3.99V53.16c0-1.4-0.42-2.73-1.26-3.99
		c-0.84-1.26-1.89-2.34-3.15-3.25c-1.26-0.91-2.66-1.61-4.2-2.1c-1.54-0.49-3.01-0.73-4.41-0.73c-2.94,0-5.46,0.98-7.56,2.94
		c-2.1,1.96-3.15,4.34-3.15,7.14V108.15z"/>
	<path class="st0" d="M-524.1,91.36c1.54,2.38,2.9,4.51,4.09,6.4c1.19,1.89,2.17,3.64,2.94,5.25c0.77,1.61,1.36,3.18,1.78,4.72
		c0.42,1.54,0.63,3.22,0.63,5.04c0,2.8-0.73,5.63-2.2,8.5c-1.47,2.87-3.46,5.46-5.98,7.77c-2.52,2.31-5.53,4.23-9.03,5.77
		c-3.5,1.54-7.28,2.31-11.33,2.31c-4.06,0-7.84-0.66-11.33-1.99c-3.5-1.33-6.54-3.43-9.13-6.3c-2.59-2.87-4.62-6.47-6.09-10.81
		c-1.47-4.34-2.2-9.51-2.2-15.53h18.47v2.94c0,1.54,0.14,3.15,0.42,4.83c0.28,1.68,0.8,3.22,1.57,4.62c0.77,1.4,1.82,2.55,3.15,3.46
		c1.33,0.91,3.04,1.36,5.14,1.36c2.8,0,4.96-0.91,6.51-2.73c1.54-1.82,2.31-3.5,2.31-5.04c0-1.26-0.52-2.83-1.57-4.72
		c-1.05-1.89-2.13-3.46-3.25-4.72l-24.56-33.16c-2.66-3.36-4.69-6.79-6.09-10.28c-1.4-3.5-2.1-7.14-2.1-10.91
		c0-2.8,0.73-5.63,2.2-8.5c1.47-2.87,3.46-5.49,5.98-7.87c2.52-2.38,5.53-4.3,9.03-5.77c3.5-1.47,7.27-2.2,11.33-2.2
		c4.06,0,7.83,0.7,11.33,2.1c3.5,1.4,6.54,3.5,9.13,6.3c2.59,2.8,4.62,6.37,6.09,10.7c1.47,4.34,2.2,9.52,2.2,15.53h-18.47v-3.15
		c0-1.54-0.14-3.15-0.42-4.83c-0.28-1.68-0.81-3.18-1.57-4.51c-0.77-1.33-1.82-2.45-3.15-3.36c-1.33-0.91-3.04-1.36-5.14-1.36
		c-2.8,0-4.97,0.88-6.51,2.62c-1.54,1.75-2.31,3.46-2.31,5.14c0,1.12,0.52,2.62,1.57,4.51s2.13,3.54,3.25,4.93L-524.1,91.36z"/>
	<path class="st0" d="M-460.72,80.44v25.82h0.21v1.47c0,2.94,1.05,5.49,3.15,7.66c2.1,2.17,4.69,3.25,7.77,3.25
		c0.7,0,1.37-0.07,1.99-0.21c0.63-0.14,1.29-0.35,1.99-0.63v19.31c-0.7,0-1.4,0.03-2.1,0.1c-0.7,0.07-1.4,0.1-2.1,0.1
		c-4.2,0-8.12-0.73-11.75-2.2c-3.64-1.47-6.82-3.53-9.55-6.19c-2.73-2.66-4.93-5.74-6.61-9.24c-1.68-3.5-2.66-7.27-2.94-11.33h-0.21
		V80.44V62.6V49.38h-14.9V31.54h14.9v-56.88h20.15v56.88h15.11v17.84h-15.11V62.6V80.44z"/>
	<path class="st0" d="M-373.2,92.41v11.12v4.41c0,4.06-0.81,7.84-2.41,11.33c-1.61,3.5-3.71,6.54-6.3,9.13
		c-2.59,2.59-5.67,4.65-9.24,6.19c-3.57,1.54-7.31,2.31-11.23,2.31c-4.06,0-7.84-0.77-11.33-2.31c-3.5-1.54-6.54-3.6-9.13-6.19
		c-2.59-2.59-4.69-5.63-6.3-9.13c-1.61-3.5-2.41-7.27-2.41-11.33v-2.31V87.37V69.74V58.2v-5.88c0.14-3.92,0.98-7.62,2.52-11.12
		c1.54-3.5,3.64-6.54,6.3-9.13c2.66-2.59,5.74-4.62,9.24-6.09c3.5-1.47,7.21-2.2,11.12-2.2c3.92,0,7.62,0.73,11.12,2.2
		c3.5,1.47,6.58,3.5,9.24,6.09c2.66,2.59,4.75,5.63,6.3,9.13c1.54,3.5,2.38,7.21,2.52,11.12v7.35v9.86v6.93h-18.68h-4.2h-16.37
		v30.85c0,2.8,1.01,5.21,3.04,7.24c2.03,2.03,4.44,3.04,7.24,3.04c2.8,0,5.21-1.01,7.24-3.04c2.03-2.03,3.04-4.44,3.04-7.24v-14.9
		H-373.2z M-412.45,60.5h20.57v-8.82c0-2.8-1.02-5.21-3.04-7.24c-2.03-2.03-4.44-3.04-7.24-3.04c-2.8,0-5.21,1.02-7.24,3.04
		c-2.03,2.03-3.04,4.44-3.04,7.24V60.5z"/>
	<path class="st0" d="M-287.56,26.29V81.7v17.21v13.01v17.42v24.35c0,0.28-0.04,0.56-0.11,0.84c-0.07,0.28-0.1,0.56-0.1,0.84v1.05
		c-0.28,3.92-1.26,7.59-2.94,11.02c-1.68,3.43-3.85,6.43-6.51,9.03c-2.66,2.59-5.77,4.62-9.34,6.09s-7.31,2.2-11.23,2.2
		c-0.7,0-1.4-0.04-2.1-0.1c-0.7-0.07-1.4-0.18-2.1-0.31v-18.68c0.7,0.28,1.36,0.49,1.99,0.63c0.63,0.14,1.29,0.21,1.99,0.21
		c2.94,0,5.46-1.05,7.56-3.15c2.1-2.1,3.15-4.62,3.15-7.56v-1.26v-22.67c-4.76,2.38-9.66,3.57-14.69,3.57
		c-4.06,0-7.87-0.73-11.44-2.2c-3.57-1.47-6.65-3.46-9.24-5.98c-2.59-2.52-4.69-5.49-6.3-8.92c-1.61-3.43-2.41-7.1-2.41-11.02v-4.2
		V87.37V70.16v-8.4V60.5v-7.14V26.29h18.89v26.45v7.14v1.89v44.92c0,2.8,1.01,5.14,3.04,7.03c2.03,1.89,4.44,2.83,7.24,2.83h1.47
		c3.64,0,6.4-0.59,8.29-1.78c1.89-1.19,3.18-2.55,3.88-4.09c0.84-1.68,1.26-3.71,1.26-6.09V29.23V26.5v-0.21H-287.56z"/>
</g>
<g>
	<path class="st1" d="M-737.94-74.54c-1,0-1.83-0.34-2.48-1.01c-0.65-0.67-0.98-1.49-0.98-2.45c0-0.96,0.3-1.77,0.91-2.45
		c0.61-0.67,1.42-1.01,2.42-1.01c0.96,0,1.8,0.34,2.51,1.01c0.72,0.68,1.08,1.49,1.08,2.45c0,0.96-0.34,1.77-1.01,2.45
		C-736.16-74.88-736.98-74.54-737.94-74.54z M-741.14-69.12h6.34l-0.13,34.49h-6.33L-741.14-69.12z"/>
	<path class="st1" d="M-708.61-66.51c0.57,0.61,1.09,1.31,1.57,2.09c0.39,0.7,0.76,1.52,1.11,2.48c0.35,0.96,0.52,2.07,0.52,3.33
		v17.5v0.91v5.49h-6.4h-0.13v-5.49v-2.87V-59c0-0.48-0.13-0.94-0.39-1.37c-0.26-0.43-0.6-0.82-1.01-1.14
		c-0.41-0.33-0.88-0.58-1.4-0.75c-0.52-0.17-1.02-0.26-1.5-0.26s-1.01,0.09-1.6,0.26c-0.59,0.17-1.14,0.42-1.67,0.75
		s-0.96,0.71-1.31,1.14c-0.35,0.44-0.52,0.89-0.52,1.37v17.9v0.91v5.49h-0.06h-4.77h-1.57v-34.49h6.34v1.83
		c0.87-0.57,1.82-1.01,2.84-1.34c1.02-0.33,2.08-0.49,3.17-0.49c1.31,0,2.55,0.24,3.72,0.72
		C-710.51-67.99-709.48-67.34-708.61-66.51z"/>
	<path class="st1" d="M-688.49-52.27v8.03h0.06v0.46c0,0.91,0.33,1.71,0.98,2.38c0.65,0.68,1.46,1.01,2.42,1.01
		c0.22,0,0.42-0.02,0.62-0.07c0.2-0.04,0.4-0.11,0.62-0.2v6.01c-0.22,0-0.44,0.01-0.65,0.03c-0.22,0.02-0.44,0.03-0.65,0.03
		c-1.31,0-2.53-0.23-3.66-0.69c-1.13-0.46-2.12-1.1-2.97-1.93c-0.85-0.83-1.54-1.79-2.06-2.87c-0.52-1.09-0.83-2.26-0.91-3.53h-0.07
		v-8.69v-5.55v-4.11h-4.64v-5.55h4.64v-17.7h6.27v17.7h4.7v5.55h-4.7v4.11V-52.27z"/>
	<path class="st1" d="M-666.03-63.7c-0.17-0.04-0.44-0.07-0.78-0.07c-0.78,0-1.58,0.23-2.38,0.69c-0.81,0.46-1.32,1.03-1.54,1.73
		v26.71h-6.4v-34.42h6.4v0.85c1.48-0.74,3.05-1.11,4.7-1.11V-63.7z"/>
	<path class="st1" d="M-642.06-58.8v3.13v5.55v5.03v1.37c0,1.26-0.25,2.44-0.75,3.53c-0.5,1.09-1.15,2.04-1.96,2.84
		c-0.81,0.81-1.76,1.45-2.87,1.93c-1.11,0.48-2.3,0.72-3.56,0.72c-1.26,0-2.44-0.24-3.53-0.72c-1.09-0.48-2.04-1.12-2.84-1.93
		c-0.81-0.81-1.46-1.75-1.96-2.84c-0.5-1.09-0.75-2.26-0.75-3.53v-0.72v-5.68v-5.55v-3.59v-1.83c0.04-1.22,0.3-2.37,0.78-3.46
		c0.48-1.09,1.13-2.04,1.96-2.84c0.83-0.81,1.78-1.44,2.87-1.89c1.09-0.46,2.24-0.69,3.46-0.69c1.22,0,2.38,0.23,3.5,0.69
		c1.11,0.46,2.08,1.09,2.91,1.89c0.83,0.81,1.48,1.75,1.96,2.84c0.48,1.09,0.74,2.24,0.78,3.46V-58.8z M-647.93-61.29
		c0-0.87-0.32-1.62-0.95-2.25c-0.63-0.63-1.38-0.95-2.25-0.95s-1.62,0.32-2.25,0.95c-0.63,0.63-0.95,1.38-0.95,2.25v17.37
		c0,0.87,0.32,1.62,0.95,2.25c0.63,0.63,1.38,0.95,2.25,0.95s1.62-0.32,2.25-0.95c0.63-0.63,0.95-1.38,0.95-2.25V-61.29z"/>
	<path class="st1" d="M-635.39-45.41v-3.14v-5.55v-4.96v-1.37c0-1.22,0.25-2.37,0.75-3.46c0.5-1.09,1.18-2.05,2.03-2.87
		c0.85-0.83,1.84-1.47,2.97-1.93c1.13-0.46,2.35-0.69,3.66-0.69c1.61,0,3.16,0.37,4.64,1.11v-16.85h6.34v50.49h-6.34v-0.85
		c-1.48,0.74-3.03,1.11-4.64,1.11c-1.26,0-2.46-0.23-3.59-0.69c-1.13-0.46-2.12-1.09-2.97-1.89c-0.85-0.81-1.53-1.74-2.03-2.81
		c-0.5-1.07-0.77-2.21-0.82-3.43V-45.41z M-629.38-43c0,0.87,0.33,1.61,0.98,2.22c0.65,0.61,1.44,0.91,2.35,0.91
		c0.43,0,0.9-0.08,1.4-0.23c0.5-0.15,0.95-0.37,1.34-0.65c0.39-0.28,0.72-0.62,0.98-1.01c0.26-0.39,0.39-0.81,0.39-1.24v-17.18
		c0-0.43-0.13-0.85-0.39-1.24c-0.26-0.39-0.59-0.73-0.98-1.01c-0.39-0.28-0.84-0.51-1.34-0.69c-0.5-0.17-0.97-0.26-1.4-0.26
		c-0.92,0-1.7,0.32-2.35,0.95c-0.65,0.63-0.98,1.38-0.98,2.25V-43z"/>
	<path class="st1" d="M-588.24-69.12v5.49v0.91v18.16c0,1.39-0.26,2.69-0.78,3.89c-0.52,1.2-1.24,2.24-2.16,3.14
		c-0.92,0.89-1.98,1.6-3.2,2.12c-1.22,0.52-2.5,0.78-3.85,0.78c-1.39,0-2.69-0.26-3.89-0.78c-1.2-0.52-2.24-1.23-3.14-2.12
		c-0.89-0.89-1.6-1.94-2.12-3.14c-0.52-1.2-0.78-2.49-0.78-3.89v-16.2v-2.87v-5.49h6.53v5.49v2.87v15.94c0,1,0.34,1.84,1.01,2.51
		c0.67,0.68,1.49,1.01,2.45,1.01c1,0,1.84-0.34,2.51-1.01c0.67-0.67,1.01-1.51,1.01-2.51v-17.9v-0.91v-5.49H-588.24z"/>
	<path class="st1" d="M-564.13-46.39v1.31v1.37c0,1.26-0.24,2.44-0.72,3.53c-0.48,1.09-1.12,2.04-1.93,2.84
		c-0.81,0.81-1.76,1.45-2.87,1.93c-1.11,0.48-2.3,0.72-3.56,0.72s-2.44-0.24-3.53-0.72c-1.09-0.48-2.04-1.12-2.84-1.93
		c-0.81-0.81-1.46-1.75-1.96-2.84c-0.5-1.09-0.75-2.26-0.75-3.53v-0.72v-5.68v-5.55v-3.59v-1.83c0.04-1.22,0.3-2.37,0.78-3.46
		c0.48-1.09,1.12-2.04,1.93-2.84c0.81-0.81,1.75-1.44,2.84-1.89c1.09-0.46,2.26-0.69,3.53-0.69c1.22,0,2.37,0.23,3.46,0.69
		c1.09,0.46,2.05,1.09,2.87,1.89c0.83,0.81,1.48,1.75,1.96,2.84c0.48,1.09,0.74,2.24,0.78,3.46v2.02h-5.81v-2.22
		c0-0.87-0.32-1.62-0.95-2.25c-0.63-0.63-1.38-0.95-2.25-0.95s-1.62,0.32-2.25,0.95c-0.63,0.63-0.95,1.38-0.95,2.25v17.31
		c0,0.87,0.32,1.62,0.95,2.25c0.63,0.63,1.38,0.95,2.25,0.95s1.62-0.32,2.25-0.95c0.63-0.63,0.95-1.38,0.95-2.25v-2.42H-564.13z"/>
	<path class="st1" d="M-555.38-74.54c-1,0-1.83-0.34-2.48-1.01c-0.65-0.67-0.98-1.49-0.98-2.45c0-0.96,0.3-1.77,0.91-2.45
		c0.61-0.67,1.42-1.01,2.42-1.01c0.96,0,1.8,0.34,2.51,1.01c0.72,0.68,1.08,1.49,1.08,2.45c0,0.96-0.34,1.77-1.01,2.45
		C-553.61-74.88-554.43-74.54-555.38-74.54z M-558.58-69.12h6.34l-0.13,34.49h-6.33L-558.58-69.12z"/>
	<path class="st1" d="M-526.06-66.51c0.57,0.61,1.09,1.31,1.57,2.09c0.39,0.7,0.76,1.52,1.11,2.48c0.35,0.96,0.52,2.07,0.52,3.33
		v17.5v0.91v5.49h-6.4h-0.13v-5.49v-2.87V-59c0-0.48-0.13-0.94-0.39-1.37c-0.26-0.43-0.6-0.82-1.01-1.14
		c-0.41-0.33-0.88-0.58-1.4-0.75c-0.52-0.17-1.02-0.26-1.5-0.26s-1.01,0.09-1.6,0.26c-0.59,0.17-1.14,0.42-1.67,0.75
		s-0.96,0.71-1.31,1.14c-0.35,0.44-0.52,0.89-0.52,1.37v17.9v0.91v5.49h-0.06h-4.77h-1.57v-34.49h6.34v1.83
		c0.87-0.57,1.82-1.01,2.84-1.34c1.02-0.33,2.08-0.49,3.17-0.49c1.31,0,2.55,0.24,3.72,0.72
		C-527.95-67.99-526.93-67.34-526.06-66.51z"/>
	<path class="st1" d="M-496.01-68.99v17.31v5.36v4.05v5.42v7.58v0.91c-0.09,1.22-0.39,2.36-0.91,3.43c-0.52,1.07-1.2,1.99-2.03,2.78
		c-0.83,0.78-1.8,1.4-2.91,1.86s-2.28,0.69-3.49,0.69c-0.22,0-0.44-0.01-0.65-0.03c-0.22-0.02-0.44-0.03-0.65-0.03v-5.88
		c0.35,0.17,0.76,0.26,1.24,0.26c0.91,0,1.69-0.33,2.32-0.98c0.63-0.65,0.95-1.44,0.95-2.35v-0.39h0.07v-7.05
		c-1.48,0.74-3,1.11-4.57,1.11c-1.26,0-2.45-0.23-3.56-0.69c-1.11-0.46-2.08-1.08-2.91-1.86s-1.48-1.71-1.96-2.78
		c-0.48-1.07-0.72-2.21-0.72-3.43h-0.07v-1.31v-4.9v-5.36v-3.07v-2.22h0.07c0-1.18,0.25-2.29,0.75-3.33
		c0.5-1.05,1.17-1.96,1.99-2.74c0.83-0.78,1.79-1.39,2.87-1.83c1.09-0.44,2.26-0.65,3.53-0.65c1.52,0,3.05,0.35,4.57,1.04v-0.78
		v-0.13H-496.01z M-502.74-60.7c0-0.43-0.12-0.84-0.36-1.21c-0.24-0.37-0.56-0.7-0.95-0.98c-0.39-0.28-0.83-0.51-1.31-0.69
		c-0.48-0.17-0.94-0.26-1.37-0.26c-0.87,0-1.62,0.31-2.25,0.91c-0.63,0.61-0.95,1.35-0.95,2.22v16.79c0,0.87,0.32,1.6,0.95,2.19
		s1.38,0.88,2.25,0.88c0.43,0,0.89-0.08,1.37-0.23c0.48-0.15,0.91-0.37,1.31-0.65c0.39-0.28,0.71-0.61,0.95-0.98
		c0.24-0.37,0.36-0.77,0.36-1.21V-60.7z"/>
</g>
<g>
	<path class="st2" d="M-1034.77,413.83c-0.11-5.27,0-10.57,0.32-15.89c0.32-5.32,0.7-10.67,1.13-16.05
		c1.07,0.22,1.94,0.32,2.58,0.32c0.86,2.15,2.82,6.67,5.89,13.55c3.06,6.88,5.56,10.65,7.5,11.29c2.36-4.19,4.68-8.49,6.94-12.9
		c2.26-4.41,4.09-9.03,5.48-13.87c1.5,0,2.58,0.16,3.23,0.48c0.32,1.08,0.67,6.13,1.05,15.16c0.38,9.03,0.67,14.41,0.89,16.13
		c-0.22,0.43-0.38,0.81-0.48,1.13c-0.43,0-0.89,0-1.37,0s-0.94,0-1.37,0c-0.22-4.09-0.4-8.15-0.56-12.18
		c-0.16-4.03-0.35-8.09-0.56-12.18c-2.15,3.98-4.25,7.98-6.29,12.02c-2.04,4.03-3.87,8.15-5.48,12.34c-0.54,0-1.05,0-1.53,0
		s-0.89,0-1.21,0c-1.08-3.55-2.77-7.1-5.08-10.65c-2.31-3.55-4.27-6.88-5.89-10c-0.22,0.11-0.43,0.22-0.65,0.32
		c-0.22,0.11-0.38,0.16-0.48,0.16c-0.54,8.82-0.86,14.06-0.97,15.73c-0.11,1.67-0.27,2.98-0.48,3.95
		C-1032.84,413.35-1033.7,413.72-1034.77,413.83z"/>
	<path class="st2" d="M-982.67,412.38c-1.51-0.54-3.66-1.45-6.45-2.74c-0.65-1.07-1.24-2.18-1.77-3.31
		c-0.54-1.13-1.08-2.28-1.61-3.47c0-4.62,0.38-8.57,1.13-11.86c0.75-3.28,3.01-6.53,6.78-9.76c3.01-1.83,6.29-2.12,9.84-0.89
		c3.55,1.24,6.29,3.2,8.23,5.89c0.11,0,0.48,0.11,1.13,0.32c3.98,7.85,4.09,14.03,0.32,18.55
		C-968.85,409.64-974.71,412.06-982.67,412.38z M-979.93,409.15c11.4-1.83,15.97-7.58,13.71-17.26c-4.62-6.45-9.95-9.25-15.97-8.39
		c-7.53,6.56-9.14,14.46-4.84,23.71c1.18,0.32,2.34,0.65,3.47,0.97C-982.43,408.51-981.22,408.83-979.93,409.15z"/>
	<path class="st2" d="M-940.24,410.77c-0.22-0.11-0.43-0.21-0.65-0.32c-0.22-0.11-0.38-0.27-0.48-0.48
		c0.11-11.94,0.16-19.01,0.16-21.21c0-2.2,0-3.84,0-4.92c-1.72,0-3.42-0.03-5.08-0.08c-1.67-0.05-3.31-0.08-4.92-0.08
		c0-0.65-0.03-1.24-0.08-1.77c-0.06-0.54-0.08-1.13-0.08-1.77c0.21-0.21,0.43-0.43,0.65-0.65c4.19,0.22,8.44,0.3,12.74,0.24
		c4.3-0.05,8.55-0.08,12.74-0.08c1.61,1.61,2.42,2.85,2.42,3.71c-1.61,0.97-3.87,1.29-6.77,0.97c-2.9-0.32-5.32-0.48-7.26-0.48
		c-1.08,1.18-1.48,5.35-1.21,12.5c0.27,7.15,0.4,11.7,0.4,13.63C-938.09,410.28-938.95,410.55-940.24,410.77z"/>
	<path class="st2" d="M-909.11,409.48c-0.22-0.11-0.38-0.24-0.48-0.4c-0.11-0.16-0.22-0.35-0.32-0.56
		c-0.11-4.19-0.19-8.47-0.24-12.82c-0.06-4.36-0.08-8.74-0.08-13.15c0.43,0,0.86,0,1.29,0c0.43,0,0.91,0,1.45,0
		c0.21,0.43,0.54,0.97,0.97,1.61c0,4.19,0.13,8.39,0.4,12.58c0.27,4.19,0.08,8.28-0.56,12.26c-0.43,0.11-0.86,0.22-1.29,0.32
		C-908.41,409.42-908.79,409.48-909.11,409.48z"/>
	<path class="st2" d="M-889.92,412.38c-1.51-0.54-3.66-1.45-6.45-2.74c-0.65-1.07-1.24-2.18-1.77-3.31
		c-0.54-1.13-1.08-2.28-1.61-3.47c0-4.62,0.38-8.57,1.13-11.86c0.75-3.28,3.01-6.53,6.78-9.76c3.01-1.83,6.29-2.12,9.84-0.89
		c3.55,1.24,6.29,3.2,8.23,5.89c0.11,0,0.48,0.11,1.13,0.32c3.98,7.85,4.09,14.03,0.32,18.55
		C-876.1,409.64-881.96,412.06-889.92,412.38z M-887.17,409.15c11.4-1.83,15.97-7.58,13.71-17.26c-4.62-6.45-9.95-9.25-15.97-8.39
		c-7.53,6.56-9.14,14.46-4.84,23.71c1.18,0.32,2.34,0.65,3.47,0.97C-889.67,408.51-888.46,408.83-887.17,409.15z"/>
	<path class="st2" d="M-827.49,413.83c-0.75-0.86-1.83-2.47-3.23-4.84c-3.98-4.3-6.32-6.86-7.02-7.66c-0.7-0.81-1.16-1.53-1.37-2.18
		c-0.11,0-0.24,0-0.4,0s-0.3,0-0.4,0c-0.43-1.4-2.34-4.03-5.73-7.9c-3.39-3.87-5.46-5.91-6.21-6.13l-0.65,0.65
		c0.21,11.4,0.43,18.39,0.65,20.97c0.21,2.58,0.32,4.41,0.32,5.48c-0.65,0.54-1.61,0.54-2.9,0c-1.29-3.66-1.77-8.58-1.45-14.76
		c0.32-6.18,0.48-11.21,0.48-15.08c0.11-0.32,0.32-1.07,0.65-2.26c2.58-0.97,4.19-0.86,4.84,0.32c0.65,1.18,1.56,2.8,2.74,4.84
		c4.73,5.48,7.69,8.98,8.87,10.48c1.18,1.51,3.06,3.87,5.65,7.1c0.97,0.65,1.94,1.72,2.9,3.23c0.21,0,0.43-0.03,0.65-0.08
		c0.21-0.05,0.48-0.13,0.81-0.24c0-4.09-0.03-8.17-0.08-12.26c-0.06-4.09,0.19-8.17,0.73-12.26c1.72,0,2.96,0.16,3.71,0.48
		c0,0.64,0,1.26,0,1.85c0,0.59,0,1.21,0,1.86c-0.22,0.22-0.4,0.38-0.56,0.48c-0.16,0.11-0.3,0.22-0.4,0.32c0,4.52,0,8.95,0,13.31
		s0,8.69,0,12.99C-825.66,413.29-826.52,413.72-827.49,413.83z"/>
	<path class="st2" d="M-761.19,412.22c-5.06-1.29-9.38-3.01-12.98-5.16c-3.61-2.15-4.54-6.5-2.82-13.07
		c2.26-3.87,5.16-7.26,8.71-10.16c3.23-1.4,7.07-1.88,11.53-1.45c4.46,0.43,7.39,2.64,8.79,6.61c-0.22,0.22-0.43,0.48-0.64,0.81
		c-0.64,0.11-1.67,0.16-3.06,0.16c-3.01-3.66-6.64-5-10.89-4.03c-4.25,0.97-7.5,3.39-9.76,7.26c-1.72,4.95-1.64,8.31,0.24,10.08
		c1.88,1.77,5.08,3.42,9.6,4.92c2.9,0,5.86-0.62,8.87-1.85c3.01-1.24,4.78-3.57,5.32-7.02c-4.09,0.32-6.94,0.54-8.55,0.65
		c-1.61,0.11-5.32,0.22-11.13,0.32c0-0.32,0-0.7,0-1.13c0-0.43,0-0.86,0-1.29c1.4-0.97,5.27-1.72,11.62-2.26
		c6.34-0.54,10.48-0.16,12.42,1.13c0.21,5.16-1.59,8.85-5.4,11.05C-753.15,409.99-757.1,411.47-761.19,412.22z"/>
	<path class="st2" d="M-712.15,410.12c-0.86-0.43-1.45-1.4-1.77-2.9c-5.06-4.95-10.16-7.9-15.32-8.87c-0.65,1.4-0.81,3.04-0.48,4.92
		c0.32,1.88,0.48,3.58,0.48,5.08c-0.54,0-1.08,0-1.61,0c-0.54,0-1.08,0-1.61,0c-1.18-1.72-1.51-3.39-0.97-5
		c-0.11-3.33-0.19-6.67-0.24-10c-0.05-3.33-0.08-6.72-0.08-10.16c0.54-0.64,1.5-1.13,2.9-1.45c4.62-0.11,10.3,0.08,17.02,0.56
		c6.72,0.48,7.88,4.44,3.47,11.86c-1.61,1.29-4.41,2.53-8.39,3.71c0.75,1.51,3.06,3.52,6.94,6.05
		C-707.96,406.44-708.07,408.51-712.15,410.12z M-729.9,394.31c3.12,0,5.99-0.05,8.63-0.16c2.63-0.11,5.4-0.75,8.31-1.94
		c1.83-3.87,0.48-6.24-4.03-7.1c-4.73,0-8.36,0-10.89,0C-730.41,385.12-731.08,388.18-729.9,394.31z"/>
	<path class="st2" d="M-695.86,414.15c-0.11-0.54-0.19-1.05-0.24-1.53c-0.06-0.48-0.08-0.99-0.08-1.53
		c0.97-1.83,1.91-3.92,2.82-6.29c0.91-2.36,3.79-9.78,8.63-22.26c0.32-2.58,1.4-3.87,3.23-3.87c2.9,4.84,5.08,10.11,6.53,15.81
		c1.45,5.7,2.98,11.29,4.6,16.78c-0.11,0.43-0.16,1.13-0.16,2.1c-0.43,0.32-1.35,0.48-2.74,0.48c0.65,0.97-0.43-2.42-3.23-10.16
		c-1.94-0.11-4.03-0.32-6.29-0.65c-2.26-0.32-4.25-0.21-5.97,0.32c-1.83,4.52-2.93,7.21-3.31,8.07c-0.38,0.86-0.83,1.67-1.37,2.42
		C-693.98,413.83-694.79,413.94-695.86,414.15z M-686.83,399.31c1.4,0,2.79,0,4.19,0c1.4,0,2.85,0,4.36,0
		c0.32-1.72-0.08-4-1.21-6.86c-1.13-2.85-1.91-5.24-2.34-7.18c-0.22,0-0.4,0-0.57,0c-0.16,0-0.3,0-0.4,0
		c-0.65,2.04-1.56,4.41-2.74,7.1C-686.72,395.07-687.15,397.38-686.83,399.31z"/>
	<path class="st2" d="M-662.47,415.28c-0.11-0.21-0.38-0.54-0.81-0.97c0-5.59,0-11.24,0-16.94c0-5.7,0-11.4,0-17.1
		c1.07-2.26,3.92-2.66,8.55-1.21c4.62,1.45,7.8,2.61,9.52,3.47c1.29,1.72,2.26,3.06,2.9,4.03c0.11,0,0.21,0,0.32,0
		c0.11,0,0.27,0,0.48,0c0,0.86,0,1.69,0,2.5s0,1.59,0,2.34c-0.32,0-0.59,0.06-0.81,0.16c-1.61,3.66-4.06,5.59-7.34,5.81
		c-3.28,0.22-6.53,0.32-9.76,0.32c-0.32,0.43-0.48,1.21-0.48,2.34c0,1.13,0,4.92,0,11.37c0.32,1.61,0.32,2.8,0,3.55
		C-660.53,414.96-661.39,415.07-662.47,415.28z M-658.6,394.8c4.62-0.32,8.33-1.02,11.13-2.1c3.98-3.55,3.57-6.32-1.21-8.31
		c-4.79-1.99-8.31-2.44-10.57-1.37c0,1.61-0.14,3.68-0.4,6.21C-659.92,391.76-659.57,393.61-658.6,394.8z"/>
	<path class="st2" d="M-632.63,413.19c-0.54-4.19-0.56-8.55-0.08-13.07c0.48-4.52,0.73-8.92,0.73-13.23
		c-0.65-1.18-0.86-2.9-0.65-5.16c3.55,0.32,5.21,2.1,5,5.32c-0.22,3.23-0.32,6.24-0.32,9.03c1.61,0,5.13,0.08,10.57,0.24
		c5.43,0.16,9.11-0.4,11.05-1.69c0.32-3.55,0.51-5.83,0.56-6.86c0.05-1.02,0.08-2.71,0.08-5.08c-1.51-2.04-1.77-3.55-0.81-4.52
		c0.32,0,0.7,0,1.13,0c0.43,0,0.86,0,1.29,0c0.21,0.32,0.4,0.62,0.57,0.89c0.16,0.27,0.4,0.51,0.73,0.73
		c0.11,5.27,0.13,10.54,0.08,15.81c-0.06,5.27-0.08,10.49-0.08,15.65c-1.29,0.86-2.48,1.18-3.55,0.97c-0.11-2.15-0.22-4.3-0.32-6.45
		c-0.11-2.15-0.16-4.36-0.16-6.61c-7.21,0.32-11.69,0.51-13.47,0.56c-1.77,0.06-4.44,0.24-7.99,0.56c0,1.94,0.11,4.14,0.32,6.61
		c0.21,2.47-0.22,4.41-1.29,5.81c-0.64,0.11-1.24,0.22-1.77,0.32C-631.55,413.13-632.09,413.19-632.63,413.19z"/>
	<path class="st2" d="M-588.75,409.48c-0.22-0.11-0.38-0.24-0.48-0.4c-0.11-0.16-0.22-0.35-0.32-0.56
		c-0.11-4.19-0.19-8.47-0.24-12.82c-0.06-4.36-0.08-8.74-0.08-13.15c0.43,0,0.86,0,1.29,0c0.43,0,0.91,0,1.45,0
		c0.21,0.43,0.54,0.97,0.97,1.61c0,4.19,0.13,8.39,0.4,12.58c0.27,4.19,0.08,8.28-0.56,12.26c-0.43,0.11-0.86,0.22-1.29,0.32
		C-588.05,409.42-588.43,409.48-588.75,409.48z"/>
	<path class="st2" d="M-568.1,414.15c-4.62-2.9-7.72-5.51-9.28-7.82c-1.56-2.31-2.34-6.32-2.34-12.02c1.07-3.23,1.77-5.24,2.1-6.05
		c0.32-0.81,0.91-1.91,1.77-3.31c7.74-4.19,15-4.57,21.78-1.13c0.43,2.04,0.59,3.39,0.48,4.03c-2.26,0.22-3.47,0.06-3.63-0.48
		c-0.16-0.54-1-1.18-2.5-1.94c-5.59,0-9.6,0.92-12.02,2.74c-2.42,1.83-3.63,5.81-3.63,11.94c1.94,4.95,4.11,7.66,6.53,8.15
		c2.42,0.48,6.21,0.73,11.37,0.73c0.97-1.4,2.53-3.49,4.68-6.29c0.54,0,1.1,0,1.69,0c0.59,0,1.21,0,1.86,0
		c0,5.48-2.07,8.71-6.21,9.68C-559.58,413.35-563.8,413.94-568.1,414.15z"/>
	<path class="st2" d="M-530.52,410.6c-1.94-0.65-4.3-1.32-7.1-2.02c-2.8-0.7-4.14-2.34-4.03-4.92c1.07-0.97,2.39-0.94,3.95,0.08
		c1.56,1.02,2.88,1.75,3.95,2.18c3.55,0.97,7.5,0.83,11.86-0.4c4.36-1.24,5.99-4.33,4.92-9.28c-3.55-3.23-8.07-4.06-13.55-2.5
		c-5.48,1.56-9.36,0.03-11.61-4.6c0-6.24,4.33-9.52,12.99-9.84c8.66-0.32,12.88,2.37,12.66,8.07c-0.54,0-1.02,0-1.45,0
		c-0.43,0-0.86,0-1.29,0c-2.26-3.76-6.43-4.97-12.5-3.63c-6.08,1.35-7.88,3.36-5.4,6.05c3.55,0,7.63-0.05,12.26-0.16
		c4.62-0.11,8.39,1.29,11.29,4.19c2.47,6.67-0.43,11.99-8.71,15.97c-1.4,0.22-2.8,0.38-4.19,0.48
		C-527.88,410.39-529.23,410.5-530.52,410.6z"/>
</g>
<g>
	<polygon class="st3" points="37.75,171.62 70.7,158.14 96.16,256.23 112.63,171.62 129.1,170.87 154.56,225.53 194.24,110.22 
		220.45,110.22 164.29,274.95 145.57,274.95 123.86,216.55 105.14,306.4 81.93,312.39 	"/>
</g>
<g>
	<polygon class="st3" points="199.49,195.96 205.1,179.11 224.94,179.11 225.88,195.96 	"/>
</g>
<g>
	<polygon class="st3" points="199.49,209.43 225.88,209.43 220.45,270.08 203.98,270.08 	"/>
</g>
<g>
	<polygon class="st3" points="229.81,152.15 266.31,145.41 263.51,276.26 311.8,276.26 311.8,293.11 241.04,293.11 	"/>
</g>
<g>
	<polygon class="st3" points="274.18,156.08 303.94,151.03 300.01,250.99 326.97,250.99 329.21,265.59 277.55,265.59 	"/>
</g>
<g>
	<polygon class="st3" points="333.7,174.62 361.78,174.62 360.66,191.18 332.86,194.27 	"/>
</g>
<g>
	<polygon class="st3" points="334.55,204.66 362.06,204.1 356.73,267.28 342.13,267.56 	"/>
</g>
<g>
	<path class="st3" d="M352.24,155.9v-23.96l57.66-2.25L435.35,248c0,0,14.56,83.11,43.05,83.11c28.83,0,28.08-35.94,28.08-35.94
		l44.93,8.99c0,0-5.24,61.4-65.14,63.65s-74.13-90.6-74.13-90.6l-19.47,1.5v15.72l-26.96-3l12.73-138.52L352.24,155.9z
		 M406.15,262.22l-6.74-21.71l-5.24,23.21L406.15,262.22z"/>
</g>
<g>
	<polygon class="st3" points="436.85,195.58 459.31,284.69 484.77,277.95 475.04,248 492.26,264.47 509.48,263.72 528.95,234.52 
		522.96,282.44 551.41,286.93 556.65,191.84 534.94,188.09 496,233.39 494.5,233.77 457.07,189.59 	"/>
</g>
<g>
	<polygon class="st4" points="245.54,374.54 280.73,370.8 277.73,439.68 307.68,435.94 306.94,367.8 340.63,367.8 332.39,482.36 
		302.44,481.61 302.44,468.14 276.98,468.88 275.49,482.36 253.77,484.61 	"/>
</g>
<g>
	<polygon class="st4" points="434.98,388.77 458.94,379.78 470.92,436.69 479.9,389.51 503.86,383.52 526.33,436.69 549.54,346.83 
		574.25,356.57 541.3,468.14 515.1,468.14 492.63,421.71 482.15,474.13 452.2,472.63 	"/>
</g>
<g>
	<path class="st4" d="M339.13,349.08l3-32.95l68.89,1.5l20.22,157.99l-28.45,4.49l-3.74-12.73l-24.71,0.75l-1.5,8.99l-27.7,0.75
		l22.46-133.28L339.13,349.08z M380.32,453.16l13.48-2.25l-8.24-14.98L380.32,453.16z"/>
</g>
<g>
	<path class="st4" d="M303.04,349.09l6.52-38.61c0,0-250.99-31.77-245.49,53.75c0.11,36.15,81.83,37.71,81.83,37.71
		s53.75,6.42,53.75,25.67c0,12.03-22.46,39.31-130.77,20.86l-12.03,26.47c0,0,166.07,44.28,179.71-36.74
		c0,0,10.33-47.17-87.45-57.92c-23.15-2.73-46.55-3.42-46.55-21.07C102.55,359.2,89.64,309.78,303.04,349.09z"/>
</g>
<g>
	<path class="st2" d="M-1189.38,724.92c-5.06-1.29-9.38-3.01-12.99-5.16c-3.6-2.15-4.54-6.5-2.82-13.07
		c2.26-3.87,5.16-7.26,8.71-10.16c3.23-1.4,7.07-1.88,11.53-1.45c4.46,0.43,7.39,2.64,8.79,6.61c-0.22,0.22-0.43,0.48-0.65,0.81
		c-0.65,0.11-1.67,0.16-3.06,0.16c-3.01-3.66-6.64-5-10.89-4.03c-4.25,0.97-7.5,3.39-9.76,7.26c-1.72,4.95-1.64,8.31,0.24,10.08
		c1.88,1.77,5.08,3.42,9.6,4.92c2.9,0,5.86-0.62,8.87-1.85c3.01-1.24,4.78-3.57,5.32-7.02c-4.09,0.32-6.94,0.54-8.55,0.65
		c-1.61,0.11-5.32,0.22-11.13,0.32c0-0.32,0-0.7,0-1.13c0-0.43,0-0.86,0-1.29c1.4-0.97,5.27-1.72,11.61-2.26
		c6.34-0.54,10.48-0.16,12.42,1.13c0.21,5.16-1.59,8.85-5.4,11.05C-1181.35,722.69-1185.3,724.17-1189.38,724.92z"/>
	<path class="st2" d="M-1140.35,722.83c-0.86-0.43-1.45-1.4-1.77-2.9c-5.06-4.95-10.16-7.9-15.32-8.87
		c-0.65,1.4-0.81,3.04-0.48,4.92c0.32,1.88,0.48,3.58,0.48,5.08c-0.54,0-1.08,0-1.61,0c-0.54,0-1.08,0-1.61,0
		c-1.18-1.72-1.51-3.39-0.97-5c-0.11-3.33-0.19-6.67-0.24-10c-0.06-3.33-0.08-6.72-0.08-10.16c0.54-0.64,1.5-1.13,2.9-1.45
		c4.62-0.11,10.3,0.08,17.02,0.56c6.72,0.48,7.88,4.44,3.47,11.86c-1.61,1.29-4.41,2.53-8.39,3.71c0.75,1.51,3.06,3.52,6.94,6.05
		C-1136.15,719.14-1136.26,721.21-1140.35,722.83z M-1158.09,707.02c3.12,0,5.99-0.05,8.63-0.16c2.63-0.11,5.4-0.75,8.31-1.94
		c1.83-3.87,0.48-6.24-4.03-7.1c-4.73,0-8.36,0-10.89,0C-1158.6,697.82-1159.27,700.89-1158.09,707.02z"/>
	<path class="st2" d="M-1124.05,726.86c-0.11-0.54-0.19-1.05-0.24-1.53c-0.06-0.48-0.08-0.99-0.08-1.53
		c0.97-1.83,1.91-3.92,2.82-6.29c0.91-2.36,3.79-9.78,8.63-22.26c0.32-2.58,1.4-3.87,3.23-3.87c2.9,4.84,5.08,10.11,6.53,15.81
		c1.45,5.7,2.98,11.29,4.6,16.78c-0.11,0.43-0.16,1.13-0.16,2.1c-0.43,0.32-1.35,0.48-2.74,0.48c0.65,0.97-0.43-2.42-3.23-10.16
		c-1.94-0.11-4.03-0.32-6.29-0.65c-2.26-0.32-4.25-0.21-5.97,0.32c-1.83,4.52-2.93,7.21-3.31,8.07c-0.38,0.86-0.83,1.67-1.37,2.42
		C-1122.17,726.54-1122.98,726.64-1124.05,726.86z M-1115.02,712.02c1.4,0,2.8,0,4.19,0c1.4,0,2.85,0,4.36,0
		c0.32-1.72-0.08-4-1.21-6.86c-1.13-2.85-1.91-5.24-2.34-7.18c-0.22,0-0.4,0-0.56,0s-0.3,0-0.4,0c-0.65,2.04-1.56,4.41-2.74,7.1
		C-1114.91,707.77-1115.34,710.08-1115.02,712.02z"/>
	<path class="st2" d="M-1090.66,727.99c-0.11-0.21-0.38-0.54-0.81-0.97c0-5.59,0-11.24,0-16.94c0-5.7,0-11.4,0-17.1
		c1.07-2.26,3.92-2.66,8.55-1.21c4.62,1.45,7.8,2.61,9.52,3.47c1.29,1.72,2.26,3.06,2.9,4.03c0.11,0,0.21,0,0.32,0
		c0.11,0,0.27,0,0.48,0c0,0.86,0,1.69,0,2.5s0,1.59,0,2.34c-0.32,0-0.59,0.06-0.81,0.16c-1.61,3.66-4.06,5.59-7.34,5.81
		c-3.28,0.22-6.53,0.32-9.76,0.32c-0.32,0.43-0.48,1.21-0.48,2.34c0,1.13,0,4.92,0,11.37c0.32,1.61,0.32,2.8,0,3.55
		C-1088.73,727.67-1089.59,727.77-1090.66,727.99z M-1086.79,707.5c4.62-0.32,8.33-1.02,11.13-2.1c3.98-3.55,3.57-6.32-1.21-8.31
		c-4.79-1.99-8.31-2.44-10.57-1.37c0,1.61-0.14,3.68-0.4,6.21C-1088.11,704.46-1087.76,706.32-1086.79,707.5z"/>
	<path class="st2" d="M-1060.82,725.89c-0.54-4.19-0.56-8.55-0.08-13.07s0.73-8.92,0.73-13.23c-0.65-1.18-0.86-2.9-0.65-5.16
		c3.55,0.32,5.21,2.1,5,5.32c-0.22,3.23-0.32,6.24-0.32,9.03c1.61,0,5.13,0.08,10.57,0.24c5.43,0.16,9.11-0.4,11.05-1.69
		c0.32-3.55,0.51-5.83,0.56-6.86c0.05-1.02,0.08-2.71,0.08-5.08c-1.51-2.04-1.77-3.55-0.81-4.52c0.32,0,0.7,0,1.13,0
		c0.43,0,0.86,0,1.29,0c0.21,0.32,0.4,0.62,0.56,0.89c0.16,0.27,0.4,0.51,0.73,0.73c0.11,5.27,0.13,10.54,0.08,15.81
		c-0.06,5.27-0.08,10.49-0.08,15.65c-1.29,0.86-2.48,1.18-3.55,0.97c-0.11-2.15-0.22-4.3-0.32-6.45c-0.11-2.15-0.16-4.36-0.16-6.61
		c-7.21,0.32-11.69,0.51-13.47,0.56c-1.77,0.06-4.44,0.24-7.98,0.56c0,1.94,0.11,4.14,0.32,6.61c0.21,2.47-0.22,4.41-1.29,5.81
		c-0.65,0.11-1.24,0.22-1.77,0.32C-1059.75,725.84-1060.28,725.89-1060.82,725.89z"/>
	<path class="st2" d="M-1016.94,722.18c-0.22-0.11-0.38-0.24-0.48-0.4c-0.11-0.16-0.22-0.35-0.32-0.56
		c-0.11-4.19-0.19-8.47-0.24-12.82c-0.06-4.36-0.08-8.74-0.08-13.15c0.43,0,0.86,0,1.29,0c0.43,0,0.91,0,1.45,0
		c0.21,0.43,0.54,0.97,0.97,1.61c0,4.19,0.13,8.39,0.4,12.58c0.27,4.19,0.08,8.28-0.56,12.26c-0.43,0.11-0.86,0.22-1.29,0.32
		C-1016.25,722.13-1016.62,722.18-1016.94,722.18z"/>
	<path class="st2" d="M-996.3,726.86c-4.62-2.9-7.72-5.51-9.28-7.82c-1.56-2.31-2.34-6.32-2.34-12.02c1.07-3.23,1.77-5.24,2.1-6.05
		c0.32-0.81,0.91-1.91,1.77-3.31c7.74-4.19,15-4.57,21.78-1.13c0.43,2.04,0.59,3.39,0.48,4.03c-2.26,0.22-3.47,0.06-3.63-0.48
		c-0.16-0.54-1-1.18-2.5-1.94c-5.59,0-9.6,0.92-12.02,2.74c-2.42,1.83-3.63,5.81-3.63,11.94c1.94,4.95,4.11,7.66,6.53,8.15
		c2.42,0.48,6.21,0.73,11.37,0.73c0.97-1.4,2.53-3.49,4.68-6.29c0.54,0,1.1,0,1.69,0c0.59,0,1.21,0,1.86,0
		c0,5.48-2.07,8.71-6.21,9.68C-987.78,726.05-992,726.64-996.3,726.86z"/>
	<path class="st2" d="M-924.03,728.47c-3.01-0.32-5.16-0.97-6.45-1.94c-0.22-5.49-0.06-11.1,0.48-16.86
		c0.54-5.75,1.13-11.37,1.77-16.86c2.04-0.75,4.33-0.94,6.86-0.56c2.53,0.38,4.92,0.62,7.18,0.73
		c10.43,3.87,15.65,11.72,15.65,23.55c-2.58,4.62-4.68,7.53-6.29,8.71c-1.61,1.18-5.11,2.21-10.49,3.07
		C-919.19,728.31-922.1,728.37-924.03,728.47z M-923.06,724.92c4.62-0.21,8.87-0.62,12.74-1.21c3.87-0.59,6.61-3.47,8.23-8.63
		c0-5.7-1.94-10.97-5.81-15.81c-5.16-2.04-10.75-3.33-16.78-3.87c-0.86,4.52-1.48,9.25-1.86,14.2c-0.38,4.95-0.24,9.68,0.4,14.19
		C-924.84,723.9-923.82,724.28-923.06,724.92z"/>
	<path class="st2" d="M-885.8,725.41c-3.23-0.75-5.06-1.34-5.48-1.77c0-4.19,0.16-8.49,0.48-12.9c0.32-4.41,0.16-8.71-0.48-12.91
		c0.65-0.97,1.5-1.88,2.58-2.74c8.49,0.32,13.6,0.51,15.32,0.56c1.72,0.06,3.49,0.24,5.32,0.57c0,2.04-0.16,3.28-0.48,3.71
		c-2.26-0.43-5.4-0.81-9.44-1.13c-4.03-0.32-7.02-0.05-8.95,0.81c0,1.29,0,2.58,0,3.87c0,1.29,0,2.58,0,3.87
		c1.94,0,4.7-0.11,8.31-0.32c3.6-0.21,6.32,0.16,8.15,1.13c0,0.54,0,1.08,0,1.61c0,0.54,0,1.02,0,1.45
		c-1.51,0.97-4.09,1.24-7.74,0.81c-3.66-0.43-6.35-0.64-8.07-0.64c-0.97,0.75-1.43,2.29-1.37,4.6c0.05,2.31,0.46,3.9,1.21,4.76
		c2.9,0.11,5.86,0.19,8.87,0.24c3.01,0.06,6.02,0.08,9.03,0.08c0.65,1.29,0.65,2.64,0,4.03c-0.86,0.11-2.18,0.11-3.95,0
		C-874.27,724.98-878.7,725.08-885.8,725.41z"/>
	<path class="st2" d="M-849.18,723.31c-1.94-0.65-4.3-1.32-7.1-2.02c-2.8-0.7-4.14-2.34-4.03-4.92c1.07-0.97,2.39-0.94,3.95,0.08
		c1.56,1.02,2.88,1.75,3.95,2.18c3.55,0.97,7.5,0.83,11.86-0.4c4.36-1.24,5.99-4.33,4.92-9.28c-3.55-3.23-8.07-4.06-13.55-2.5
		c-5.48,1.56-9.36,0.03-11.61-4.6c0-6.24,4.33-9.52,12.99-9.84c8.66-0.32,12.88,2.37,12.66,8.07c-0.54,0-1.02,0-1.45,0
		c-0.43,0-0.86,0-1.29,0c-2.26-3.76-6.43-4.97-12.5-3.63c-6.08,1.35-7.88,3.36-5.4,6.05c3.55,0,7.63-0.05,12.26-0.16
		c4.62-0.11,8.39,1.29,11.29,4.19c2.47,6.67-0.43,11.99-8.71,15.97c-1.4,0.22-2.8,0.38-4.19,0.48
		C-846.55,723.1-847.89,723.2-849.18,723.31z"/>
	<path class="st2" d="M-814.66,722.18c-0.22-0.11-0.38-0.24-0.48-0.4c-0.11-0.16-0.22-0.35-0.32-0.56
		c-0.11-4.19-0.19-8.47-0.24-12.82c-0.06-4.36-0.08-8.74-0.08-13.15c0.43,0,0.86,0,1.29,0c0.43,0,0.91,0,1.45,0
		c0.21,0.43,0.54,0.97,0.97,1.61c0,4.19,0.13,8.39,0.4,12.58c0.27,4.19,0.08,8.28-0.56,12.26c-0.43,0.11-0.86,0.22-1.29,0.32
		C-813.96,722.13-814.34,722.18-814.66,722.18z"/>
	<path class="st2" d="M-786.92,724.92c-5.06-1.29-9.38-3.01-12.99-5.16c-3.6-2.15-4.54-6.5-2.82-13.07
		c2.26-3.87,5.16-7.26,8.71-10.16c3.23-1.4,7.07-1.88,11.53-1.45c4.46,0.43,7.39,2.64,8.79,6.61c-0.22,0.22-0.43,0.48-0.64,0.81
		c-0.65,0.11-1.67,0.16-3.07,0.16c-3.01-3.66-6.64-5-10.89-4.03c-4.25,0.97-7.5,3.39-9.76,7.26c-1.72,4.95-1.64,8.31,0.24,10.08
		c1.88,1.77,5.08,3.42,9.6,4.92c2.9,0,5.86-0.62,8.87-1.85c3.01-1.24,4.78-3.57,5.32-7.02c-4.09,0.32-6.94,0.54-8.55,0.65
		c-1.61,0.11-5.32,0.22-11.13,0.32c0-0.32,0-0.7,0-1.13c0-0.43,0-0.86,0-1.29c1.4-0.97,5.27-1.72,11.61-2.26
		c6.34-0.54,10.49-0.16,12.42,1.13c0.21,5.16-1.59,8.85-5.4,11.05C-778.88,722.69-782.83,724.17-786.92,724.92z"/>
	<path class="st2" d="M-729.98,726.54c-0.75-0.86-1.83-2.47-3.23-4.84c-3.98-4.3-6.32-6.86-7.02-7.66c-0.7-0.81-1.16-1.53-1.37-2.18
		c-0.11,0-0.24,0-0.4,0s-0.3,0-0.4,0c-0.43-1.4-2.34-4.03-5.73-7.9c-3.39-3.87-5.46-5.91-6.21-6.13l-0.65,0.65
		c0.21,11.4,0.43,18.39,0.65,20.97c0.21,2.58,0.32,4.41,0.32,5.48c-0.65,0.54-1.61,0.54-2.9,0c-1.29-3.66-1.77-8.58-1.45-14.76
		c0.32-6.18,0.48-11.21,0.48-15.08c0.11-0.32,0.32-1.07,0.64-2.26c2.58-0.97,4.19-0.86,4.84,0.32c0.65,1.18,1.56,2.8,2.74,4.84
		c4.73,5.48,7.69,8.98,8.87,10.48c1.18,1.51,3.06,3.87,5.65,7.1c0.97,0.65,1.94,1.72,2.9,3.23c0.21,0,0.43-0.03,0.65-0.08
		c0.21-0.05,0.48-0.13,0.81-0.24c0-4.09-0.03-8.17-0.08-12.26c-0.05-4.09,0.19-8.17,0.73-12.26c1.72,0,2.96,0.16,3.71,0.48
		c0,0.64,0,1.26,0,1.85c0,0.59,0,1.21,0,1.86c-0.22,0.22-0.4,0.38-0.56,0.48c-0.16,0.11-0.3,0.22-0.4,0.32c0,4.52,0,8.95,0,13.31
		s0,8.69,0,12.99C-728.15,726-729.01,726.43-729.98,726.54z"/>
</g>
<g>
</g>
<g>
</g>
<g>
</g>
<g>
</g>
<g>
</g>
<g>
</g>
</svg>
