<?xml version="1.0" encoding="utf-8"?>
<!-- Generator: Adobe Illustrator 16.0.4, SVG Export Plug-In . SVG Version: 6.00 Build 0)  -->
<!DOCTYPE svg PUBLIC "-//W3C//DTD SVG 1.1//EN" "http://www.w3.org/Graphics/SVG/1.1/DTD/svg11.dtd">
<svg version="1.1" xmlns="http://www.w3.org/2000/svg" xmlns:xlink="http://www.w3.org/1999/xlink" x="0px" y="0px"
	 width="70.602px" height="72.107px" viewBox="0 0 70.602 72.107" enable-background="new 0 0 70.602 72.107" xml:space="preserve">
<g id="Layer_1">
</g>
<g id="logo_xA0_Image">
	<g>
		<path fill-rule="evenodd" clip-rule="evenodd" fill="#007684" d="M35.324,7.588C51.139,7.715,63.84,20.251,63.812,36.12
			C63.787,51.921,51.102,64.56,35.215,64.519C19.436,64.478,6.73,51.856,6.789,35.95C6.846,20.193,19.492,7.694,35.324,7.588z
			 M35.316,11.535c-13.441-0.11-24.576,10.94-24.621,24.44c-0.045,13.596,11.09,24.562,24.441,24.646
			c13.562,0.084,24.771-10.984,24.77-24.553C59.906,22.512,48.75,11.44,35.316,11.535z"/>
		<path fill-rule="evenodd" clip-rule="evenodd" fill="#007684" d="M24.748,22.68c1.078,0,2.154-0.005,3.232,0.002
			c0.527,0.003,0.535,0.016,0.543,0.557c0.006,0.549,0.006,1.098,0,1.646c-0.008,0.521-0.014,0.521-0.566,0.529
			c-0.201,0.003-0.406-0.003-0.609,0.001c-0.572,0.011-0.59,0.033-0.402,0.598c0.365,1.096,0.736,2.189,1.109,3.282
			c0.451,1.325,0.9,2.649,1.357,3.971c0.043,0.119,0.146,0.216,0.225,0.321c0.07-0.11,0.17-0.212,0.209-0.332
			c0.787-2.451,1.57-4.902,2.346-7.357c0.133-0.423,0.078-0.468-0.395-0.483c-1.025-0.031-1.025-0.031-1.025-1.032
			c0-0.406,0.021-0.813-0.006-1.219c-0.025-0.379,0.125-0.493,0.492-0.488c1.361,0.016,2.723-0.002,4.082,0.01
			c0.461,0.004,0.92,0.056,1.379,0.086c0.021,0.441,0.043,0.884,0.066,1.326c0,0.02,0,0.04,0,0.061
			c-0.014,0.384,0.113,0.892-0.082,1.117c-0.18,0.206-0.711,0.108-1.086,0.141c-0.371,0.033-0.406,0.082-0.256,0.53
			c0.422,1.248,0.855,2.492,1.283,3.738c0.396,1.149,0.787,2.301,1.184,3.451c0.047,0.133,0.09,0.269,0.154,0.395
			c0.082,0.161,0.174,0.148,0.244-0.015c0.045-0.111,0.086-0.227,0.123-0.342c0.777-2.368,1.557-4.737,2.334-7.105
			c0.037-0.114,0.066-0.232,0.102-0.35c0.059-0.219-0.049-0.298-0.252-0.299c-0.322-0.002-0.65-0.017-0.975-0.002
			c-0.293,0.014-0.391-0.118-0.387-0.397c0.012-0.65,0.012-1.302,0-1.951c-0.004-0.293,0.125-0.395,0.404-0.39
			c0.486,0.01,0.975,0.002,1.461,0.002c1.443,0,2.885-0.003,4.33,0.001c0.541,0.002,0.547,0.01,0.551,0.534
			c0.006,0.549,0.006,1.098,0.002,1.646c-0.006,0.542-0.008,0.544-0.527,0.552c-0.266,0.003-0.533,0.026-0.795-0.005
			c-0.424-0.053-0.609,0.139-0.734,0.529c-0.559,1.756-1.145,3.505-1.723,5.255c-0.223,0.674-0.455,1.345-0.672,2.021
			c-0.152,0.477-0.117,0.521,0.361,0.576c0.883,0.1,1.629,0.472,2.246,1.106c0.084,0.088,0.16,0.186,0.252,0.265
			c0.057,0.049,0.135,0.07,0.203,0.104c0.039-0.083,0.109-0.164,0.113-0.249c0.018-0.243,0.018-0.487,0.012-0.731
			c-0.008-0.249,0.086-0.371,0.354-0.368c0.752,0.009,1.504,0.009,2.256,0c0.266-0.003,0.355,0.116,0.355,0.368
			c-0.004,1.565-0.006,3.129,0,4.693c0,0.269-0.131,0.354-0.377,0.352c-0.752-0.006-1.504-0.008-2.256,0
			c-0.318,0.004-0.389-0.182-0.453-0.45c-0.283-1.166-0.977-1.941-2.18-2.198c-0.518-0.109-1.014-0.025-1.477,0.217
			c-0.828,0.432-1.088,1.343-0.572,2.12c0.195,0.292,0.48,0.567,0.789,0.735c0.869,0.478,1.777,0.887,2.662,1.338
			c0.76,0.388,1.533,0.756,2.254,1.206c1.645,1.028,2.455,2.552,2.467,4.48c0.002,0.624-0.039,1.266-0.184,1.868
			c-0.488,2.029-2.287,3.476-4.389,3.607c-0.879,0.055-1.748,0.062-2.576-0.296c-0.605-0.263-1.131-0.636-1.559-1.144
			c-0.047-0.057-0.125-0.086-0.191-0.129c-0.039,0.082-0.088,0.16-0.115,0.246c-0.018,0.056-0.004,0.121-0.004,0.182
			c-0.025,0.998-0.025,0.998-1,0.998c-0.506,0-1.016-0.018-1.521,0.005c-0.355,0.017-0.451-0.13-0.449-0.463
			c0.01-1.747,0.01-3.495,0.002-5.242c-0.004-0.311,0.1-0.436,0.42-0.428c0.711,0.018,1.424,0.018,2.135,0
			c0.316-0.009,0.4,0.119,0.436,0.422c0.121,1.05,0.498,1.962,1.467,2.531c0.908,0.533,2.041,0.496,2.738-0.108
			c0.957-0.828,1.012-2.198,0.066-3.052c-0.414-0.377-0.914-0.675-1.408-0.95c-0.92-0.514-1.879-0.963-2.795-1.481
			c-0.564-0.319-1.094-0.701-1.615-1.086c-0.514-0.378-0.916-0.86-1.188-1.446c-0.557-1.202-1.068-2.421-1.48-3.685
			c-0.484-1.505-1.025-2.99-1.545-4.484c-0.045-0.134-0.09-0.271-0.145-0.4c-0.021-0.052-0.096-0.135-0.107-0.129
			c-0.066,0.035-0.15,0.08-0.18,0.145c-0.068,0.146-0.111,0.304-0.16,0.458c-0.703,2.158-1.404,4.317-2.107,6.476
			c-0.197,0.604-0.199,0.604-0.846,0.604c-0.65,0.001-1.301,0.001-1.953,0c-0.57-0.002-0.574-0.003-0.758-0.544
			c-0.852-2.493-1.701-4.988-2.553-7.481c-0.654-1.919-1.307-3.839-1.963-5.757c-0.203-0.598-0.207-0.591-0.861-0.602
			c-1.25-0.022-1.113,0.224-1.123-1.136c-0.004-0.346-0.008-0.691,0-1.036c0.012-0.532,0.027-0.555,0.551-0.559
			C22.596,22.675,23.672,22.68,24.748,22.68z"/>
	</g>
</g>
</svg>
